<svg width="119" height="50" viewBox="0 0 119 50" fill="none" xmlns="http://www.w3.org/2000/svg">
<path d="M17.8271 2.75195C17.8271 2.83984 17.8027 2.9375 17.7539 3.04492C17.7148 3.15234 17.6416 3.20605 17.5342 3.20605C17.4951 3.20605 17.4561 3.18652 17.417 3.14746C17.3877 3.1084 17.3584 3.06445 17.3291 3.01562C17.2998 2.9668 17.2656 2.92285 17.2266 2.88379C17.1973 2.84473 17.1631 2.82031 17.124 2.81055C17.1338 2.99609 17.1338 3.1377 17.124 3.23535C17.1143 3.33301 17.0996 3.40625 17.0801 3.45508C17.0605 3.49414 17.0312 3.51855 16.9922 3.52832C16.9629 3.52832 16.9287 3.52832 16.8896 3.52832C16.8115 3.52832 16.7383 3.5332 16.6699 3.54297C16.6016 3.55273 16.5332 3.56738 16.4648 3.58691C16.2402 3.63574 16.0693 3.66992 15.9521 3.68945C15.8447 3.69922 15.7666 3.72852 15.7178 3.77734C15.6689 3.82617 15.6396 3.9043 15.6299 4.01172C15.6201 4.11914 15.6055 4.29004 15.5859 4.52441C15.5664 4.7002 15.5518 4.87598 15.542 5.05176C15.5322 5.21777 15.5273 5.38867 15.5273 5.56445C15.5273 6.0332 15.5469 6.49219 15.5859 6.94141C15.6348 7.39062 15.6592 7.84961 15.6592 8.31836C15.6592 8.54297 15.6396 8.7627 15.6006 8.97754C15.5713 9.19238 15.5566 9.41211 15.5566 9.63672C15.5566 9.83203 15.5957 10.0273 15.6738 10.2227C15.7617 10.4082 15.8057 10.584 15.8057 10.75C15.8057 10.7988 15.7861 10.8477 15.7471 10.8965C15.7178 10.9355 15.6787 10.9795 15.6299 11.0283C15.5908 11.0771 15.5518 11.1309 15.5127 11.1895C15.4834 11.248 15.4688 11.3164 15.4688 11.3945C15.4688 11.5996 15.5029 11.7998 15.5713 11.9951C15.6494 12.1807 15.6885 12.376 15.6885 12.5811C15.6885 12.8936 15.6689 13.2061 15.6299 13.5186C15.5908 13.8311 15.5469 14.1436 15.498 14.4561C15.459 14.7686 15.4199 15.0811 15.3809 15.3936C15.3418 15.7061 15.3223 16.0186 15.3223 16.3311C15.3223 16.585 15.3369 16.8291 15.3662 17.0635C15.4053 17.2881 15.4688 17.5127 15.5566 17.7373C15.5762 17.7861 15.5957 17.8398 15.6152 17.8984C15.6348 17.957 15.6445 18.0107 15.6445 18.0596C15.6445 18.1865 15.6104 18.2939 15.542 18.3818C15.4834 18.46 15.4541 18.5283 15.4541 18.5869C15.4541 18.6357 15.4834 18.6943 15.542 18.7627C15.6104 18.8311 15.6543 18.8945 15.6738 18.9531C15.7422 19.1777 15.7959 19.4268 15.835 19.7002C15.874 19.9639 15.8936 20.2129 15.8936 20.4473C15.8936 20.6523 15.8398 20.8525 15.7324 21.0479C15.625 21.2432 15.4834 21.4189 15.3076 21.5752C15.1318 21.7217 14.9316 21.8438 14.707 21.9414C14.4922 22.0391 14.2725 22.0879 14.0479 22.0879C13.7451 22.0879 13.4863 21.9951 13.2715 21.8096C13.0664 21.624 12.8857 21.3994 12.7295 21.1357C12.583 20.8623 12.4463 20.5791 12.3193 20.2861C12.2021 19.9932 12.085 19.7393 11.9678 19.5244C11.8701 19.3486 11.792 19.1826 11.7334 19.0264C11.6846 18.8604 11.6309 18.6992 11.5723 18.543C11.5137 18.3867 11.4404 18.2354 11.3525 18.0889C11.2646 17.9326 11.1426 17.7812 10.9863 17.6348C10.8594 17.5176 10.7617 17.3809 10.6934 17.2246C10.625 17.0586 10.5664 16.8877 10.5176 16.7119C10.4785 16.5264 10.4395 16.3457 10.4004 16.1699C10.3711 15.9844 10.3369 15.8135 10.2979 15.6572C10.1904 15.2764 10.0635 14.9004 9.91699 14.5293C9.77051 14.1582 9.62891 13.7871 9.49219 13.416C9.44336 13.2988 9.37988 13.167 9.30176 13.0205C9.2334 12.874 9.16016 12.7275 9.08203 12.5811C9.00391 12.4346 8.93066 12.293 8.8623 12.1562C8.80371 12.0195 8.76953 11.8926 8.75977 11.7754C8.7207 11.4531 8.6377 11.165 8.51074 10.9111C8.38379 10.6475 8.24707 10.3984 8.10059 10.1641C7.9541 9.92969 7.8125 9.69043 7.67578 9.44629C7.53906 9.20215 7.44629 8.92871 7.39746 8.62598C7.37793 8.52832 7.34375 8.40137 7.29492 8.24512C7.24609 8.0791 7.18262 7.91797 7.10449 7.76172C7.02637 7.5957 6.93359 7.4541 6.82617 7.33691C6.71875 7.21973 6.60645 7.16113 6.48926 7.16113C6.38184 7.16113 6.29395 7.21484 6.22559 7.32227C6.16699 7.41992 6.11816 7.54199 6.0791 7.68848C6.04004 7.8252 6.01074 7.9668 5.99121 8.11328C5.98145 8.25 5.97656 8.35254 5.97656 8.4209C5.97656 8.61621 5.98633 8.81152 6.00586 9.00684C6.03516 9.20215 6.0498 9.39746 6.0498 9.59277C6.0498 9.73926 6.02051 9.88086 5.96191 10.0176C5.90332 10.1543 5.87402 10.291 5.87402 10.4277C5.87402 10.5156 5.90332 10.5889 5.96191 10.6475C6.03027 10.7061 6.06445 10.7744 6.06445 10.8525C6.06445 10.9307 6.05469 11.0088 6.03516 11.0869C6.01562 11.1553 6.00586 11.2285 6.00586 11.3066C6.00586 11.5508 6.01562 11.79 6.03516 12.0244C6.06445 12.2588 6.0791 12.4932 6.0791 12.7275C6.0791 12.8936 6.06934 13.0645 6.0498 13.2402C6.03027 13.4062 5.99121 13.5625 5.93262 13.709C5.87402 13.8555 5.78613 13.9824 5.66895 14.0898C5.55176 14.1875 5.40039 14.251 5.21484 14.2803C5.25391 14.3584 5.30273 14.4121 5.36133 14.4414C5.42969 14.4609 5.49805 14.4756 5.56641 14.4854C5.63477 14.4951 5.69336 14.5098 5.74219 14.5293C5.79102 14.5488 5.81543 14.6025 5.81543 14.6904C5.81543 14.7393 5.81055 14.7832 5.80078 14.8223C5.80078 14.8516 5.80078 14.8857 5.80078 14.9248C5.80078 15.0322 5.82031 15.1201 5.85938 15.1885C5.9082 15.2568 5.96191 15.3252 6.02051 15.3936C6.0791 15.4521 6.12793 15.5156 6.16699 15.584C6.21582 15.6426 6.24023 15.7207 6.24023 15.8184C6.24023 15.9355 6.22559 16.0479 6.19629 16.1553C6.16699 16.2627 6.15234 16.3701 6.15234 16.4775C6.15234 16.7119 6.18164 16.9414 6.24023 17.166C6.29883 17.3809 6.32812 17.6055 6.32812 17.8398C6.32812 17.9668 6.31348 18.0596 6.28418 18.1182C6.26465 18.167 6.23535 18.2061 6.19629 18.2354C6.16699 18.2646 6.1377 18.2891 6.1084 18.3086C6.08887 18.3184 6.0791 18.3525 6.0791 18.4111C6.0791 18.5088 6.09375 18.6016 6.12305 18.6895C6.15234 18.7676 6.16699 18.8555 6.16699 18.9531C6.16699 19.0117 6.15723 19.0703 6.1377 19.1289C6.12793 19.1875 6.09863 19.2412 6.0498 19.29C6.05957 19.4072 6.09863 19.4902 6.16699 19.5391C6.23535 19.5879 6.31348 19.6318 6.40137 19.6709C6.49902 19.71 6.5918 19.7539 6.67969 19.8027C6.76758 19.8418 6.83594 19.915 6.88477 20.0225C6.92383 20.1104 6.96289 20.1934 7.00195 20.2715C7.05078 20.3398 7.12891 20.374 7.23633 20.374C7.40234 20.374 7.55371 20.3398 7.69043 20.2715C7.82715 20.1934 7.97363 20.1543 8.12988 20.1543C8.38379 20.1543 8.55957 20.2568 8.65723 20.4619C8.75488 20.6572 8.80371 20.8623 8.80371 21.0771C8.80371 21.3506 8.75488 21.5459 8.65723 21.6631C8.56934 21.7705 8.4668 21.8535 8.34961 21.9121C8.24219 21.9609 8.13965 22.0098 8.04199 22.0586C7.9541 22.1074 7.91016 22.2002 7.91016 22.3369C7.91016 22.3564 7.91016 22.3711 7.91016 22.3809C7.91992 22.3906 7.9248 22.4053 7.9248 22.4248C7.78809 22.3369 7.6416 22.2734 7.48535 22.2344C7.33887 22.1953 7.18262 22.1758 7.0166 22.1758C6.72363 22.1758 6.43066 22.2148 6.1377 22.293C5.85449 22.3809 5.56641 22.4248 5.27344 22.4248C5.05859 22.4248 4.84863 22.4053 4.64355 22.3662C4.43848 22.3271 4.22852 22.3076 4.01367 22.3076C3.87695 22.3076 3.74023 22.3223 3.60352 22.3516C3.47656 22.3906 3.34473 22.4102 3.20801 22.4102C3.07129 22.4102 2.89062 22.376 2.66602 22.3076C2.44141 22.249 2.22168 22.166 2.00684 22.0586C1.79199 21.9609 1.60645 21.8535 1.4502 21.7363C1.30371 21.6094 1.23047 21.4922 1.23047 21.3848C1.23047 21.0918 1.32812 20.8281 1.52344 20.5938C1.71875 20.3496 1.96289 20.2031 2.25586 20.1543C2.40234 20.125 2.56348 20.1104 2.73926 20.1104C2.9248 20.1104 3.10547 20.1055 3.28125 20.0957C3.45703 20.0762 3.62305 20.042 3.7793 19.9932C3.93555 19.9346 4.06738 19.8369 4.1748 19.7002C4.13574 19.5537 4.11621 19.3877 4.11621 19.2021C4.11621 18.8604 4.16016 18.5283 4.24805 18.2061C4.33594 17.8838 4.37988 17.5518 4.37988 17.21C4.37988 17.0732 4.36523 16.9316 4.33594 16.7852C4.21875 16.1113 4.16016 15.4326 4.16016 14.749C4.16016 14.5537 4.16504 14.3584 4.1748 14.1631C4.18457 13.958 4.18945 13.7578 4.18945 13.5625C4.18945 13.0547 4.15039 12.5518 4.07227 12.0537C4.00391 11.5557 3.95996 11.0527 3.94043 10.5449C3.9209 10.0078 3.91113 9.48047 3.91113 8.96289C3.91113 8.43555 3.85742 7.9082 3.75 7.38086C3.7207 7.24414 3.70117 7.1123 3.69141 6.98535C3.69141 6.8584 3.69141 6.72656 3.69141 6.58984V6.0625C3.69141 5.65234 3.67188 5.34473 3.63281 5.13965C3.59375 4.93457 3.52539 4.78809 3.42773 4.7002C3.33008 4.60254 3.20312 4.54395 3.04688 4.52441C2.90039 4.49512 2.71484 4.46582 2.49023 4.43652C2.36328 4.41699 2.23145 4.35352 2.09473 4.24609C1.96777 4.13867 1.8457 4.01172 1.72852 3.86523C1.62109 3.71875 1.52832 3.56738 1.4502 3.41113C1.38184 3.25488 1.34766 3.11328 1.34766 2.98633V2.66406C1.34766 2.27344 1.40625 1.97559 1.52344 1.77051C1.64062 1.55566 1.80176 1.39941 2.00684 1.30176C2.21191 1.19434 2.45117 1.13086 2.72461 1.11133C3.00781 1.0918 3.31055 1.08203 3.63281 1.08203C3.95508 1.08203 4.28711 1.09668 4.62891 1.12598C4.98047 1.14551 5.31738 1.19922 5.63965 1.28711C5.96191 1.36523 6.25488 1.4873 6.51855 1.65332C6.78223 1.80957 6.99707 2.02441 7.16309 2.29785C7.27051 2.4834 7.36328 2.67871 7.44141 2.88379C7.51953 3.0791 7.59277 3.2793 7.66113 3.48438C7.72949 3.68945 7.79785 3.89453 7.86621 4.09961C7.93457 4.29492 8.02246 4.48535 8.12988 4.6709C8.17871 4.75879 8.21289 4.85645 8.23242 4.96387C8.26172 5.06152 8.28613 5.16406 8.30566 5.27148C8.33496 5.36914 8.36426 5.4668 8.39355 5.56445C8.42285 5.65234 8.4668 5.74023 8.52539 5.82812C8.59375 5.90625 8.67188 5.98926 8.75977 6.07715C8.85742 6.15527 8.93066 6.24316 8.97949 6.34082C9.06738 6.53613 9.12598 6.74121 9.15527 6.95605C9.19434 7.16113 9.22852 7.37109 9.25781 7.58594C9.28711 7.79102 9.31641 8.00098 9.3457 8.21582C9.38477 8.4209 9.44824 8.62109 9.53613 8.81641C9.59473 8.93359 9.64844 9.03125 9.69727 9.10938C9.75586 9.1875 9.80469 9.26562 9.84375 9.34375C9.89258 9.41211 9.93164 9.49512 9.96094 9.59277C10 9.68066 10.0293 9.79785 10.0488 9.94434C10.0684 10.1592 10.0879 10.374 10.1074 10.5889C10.127 10.7939 10.1758 10.999 10.2539 11.2041C10.3125 11.3506 10.3906 11.4873 10.4883 11.6143C10.5859 11.7412 10.6836 11.8682 10.7812 11.9951C10.8887 12.1123 10.9912 12.2344 11.0889 12.3613C11.1865 12.4883 11.2598 12.6299 11.3086 12.7861C11.4062 13.0791 11.499 13.3525 11.5869 13.6064C11.6748 13.8604 11.8457 14.085 12.0996 14.2803C12.041 14.3682 11.9873 14.4658 11.9385 14.5732C11.8994 14.6709 11.8799 14.7734 11.8799 14.8809C11.8799 15.0859 11.9287 15.291 12.0264 15.4961C12.1338 15.6914 12.2266 15.8818 12.3047 16.0674C12.3633 16.2139 12.4219 16.3408 12.4805 16.4482C12.5488 16.5557 12.6611 16.6484 12.8174 16.7266C12.9541 16.7949 13.0469 16.8584 13.0957 16.917C13.1445 16.9658 13.1738 17.0244 13.1836 17.0928C13.1934 17.1514 13.1934 17.2246 13.1836 17.3125C13.1836 17.3906 13.1982 17.4932 13.2275 17.6201C13.2373 17.6787 13.2568 17.752 13.2861 17.8398C13.3154 17.918 13.3496 18.001 13.3887 18.0889C13.4375 18.167 13.4912 18.2354 13.5498 18.2939C13.6084 18.3525 13.6719 18.3818 13.7402 18.3818C13.7988 18.3818 13.8428 18.3623 13.8721 18.3232C13.9014 18.2744 13.9258 18.2207 13.9453 18.1621C13.9648 18.1035 13.9746 18.0449 13.9746 17.9863C13.9844 17.918 13.9893 17.8643 13.9893 17.8252C13.9893 17.6885 14.0234 17.5664 14.0918 17.459C14.1699 17.3418 14.209 17.21 14.209 17.0635C14.209 16.8975 14.1699 16.7461 14.0918 16.6094C14.0234 16.4727 13.9893 16.3213 13.9893 16.1553C13.9893 16.0186 14.0137 15.8965 14.0625 15.7891C14.1211 15.6719 14.1504 15.5449 14.1504 15.4082C14.1504 15.3105 14.1113 15.2275 14.0332 15.1592C13.9648 15.0908 13.9307 15.0225 13.9307 14.9541C13.9307 14.9248 13.9453 14.9102 13.9746 14.9102C14.0039 14.9004 14.0332 14.8906 14.0625 14.8809C14.0918 14.8711 14.1211 14.8564 14.1504 14.8369C14.1797 14.8076 14.1943 14.7588 14.1943 14.6904C14.1943 14.4561 14.165 14.2314 14.1064 14.0166C14.0576 13.792 13.999 13.5674 13.9307 13.3428C13.8623 13.1182 13.7988 12.8936 13.7402 12.6689C13.6914 12.4346 13.667 12.2002 13.667 11.9658C13.667 11.7314 13.7158 11.5264 13.8135 11.3506C13.9111 11.1748 13.96 11.0576 13.96 10.999C13.96 10.8721 13.9258 10.7598 13.8574 10.6621C13.7988 10.5547 13.7695 10.4375 13.7695 10.3105C13.7695 10.1641 13.8037 10.0273 13.8721 9.90039C13.9502 9.76367 13.9893 9.62207 13.9893 9.47559C13.9893 9.3877 13.9697 9.30469 13.9307 9.22656C13.8916 9.13867 13.8477 9.05078 13.7988 8.96289C13.75 8.875 13.7012 8.78711 13.6523 8.69922C13.6133 8.60156 13.584 8.50879 13.5645 8.4209C13.5352 8.27441 13.5156 8.12305 13.5059 7.9668C13.5059 7.81055 13.5059 7.6543 13.5059 7.49805V6.86816C13.5059 6.60449 13.4912 6.35059 13.4619 6.10645C13.4424 5.85254 13.3984 5.59863 13.3301 5.34473C13.2715 5.11035 13.2373 4.89551 13.2275 4.7002C13.2178 4.50488 13.1885 4.33398 13.1396 4.1875C13.0908 4.04102 12.998 3.92383 12.8613 3.83594C12.7246 3.73828 12.5 3.67969 12.1875 3.66016C11.9629 3.64063 11.7383 3.63086 11.5137 3.63086C11.2891 3.62109 11.0645 3.58691 10.8398 3.52832C10.6934 3.48926 10.5811 3.40625 10.5029 3.2793C10.4346 3.15234 10.3857 3.01074 10.3564 2.85449C10.3271 2.69824 10.3125 2.54199 10.3125 2.38574C10.3125 2.21973 10.3125 2.08789 10.3125 1.99023C10.3125 1.80469 10.4004 1.65332 10.5762 1.53613C10.7617 1.40918 10.9766 1.30664 11.2207 1.22852C11.4746 1.15039 11.7285 1.09668 11.9824 1.06738C12.2363 1.02832 12.4316 1.00879 12.5684 1.00879C12.6562 1.00879 12.8125 1.01367 13.0371 1.02344C13.2617 1.0332 13.5107 1.05273 13.7842 1.08203C14.0576 1.11133 14.3408 1.15039 14.6338 1.19922C14.9268 1.23828 15.1953 1.29688 15.4395 1.375C15.6836 1.44336 15.8838 1.52637 16.04 1.62402C16.1963 1.72168 16.2744 1.83398 16.2744 1.96094C16.3623 1.86328 16.46 1.78027 16.5674 1.71191C16.6748 1.64355 16.7969 1.60938 16.9336 1.60938C17.0605 1.60938 17.1777 1.64844 17.2852 1.72656C17.4023 1.79492 17.5 1.8877 17.5781 2.00488C17.6562 2.12207 17.7148 2.24902 17.7539 2.38574C17.8027 2.5127 17.8271 2.63477 17.8271 2.75195ZM3.98438 21.0039C3.98438 20.916 3.95996 20.8525 3.91113 20.8135C3.8623 20.7646 3.79883 20.7305 3.7207 20.7109C3.65234 20.6914 3.5791 20.6719 3.50098 20.6523C3.43262 20.623 3.37891 20.584 3.33984 20.5352C3.33008 20.5645 3.32031 20.5938 3.31055 20.623C3.31055 20.6426 3.31055 20.667 3.31055 20.6963C3.31055 20.7842 3.33496 20.8525 3.38379 20.9014C3.43262 20.9404 3.49121 20.9697 3.55957 20.9893C3.6377 21.0088 3.71094 21.0332 3.7793 21.0625C3.84766 21.082 3.90625 21.1162 3.95508 21.165C3.96484 21.1357 3.96973 21.1113 3.96973 21.0918C3.97949 21.0625 3.98438 21.0332 3.98438 21.0039ZM36.6797 6.80957C36.6797 7.22949 36.5576 7.55664 36.3135 7.79102C36.0791 8.02539 35.7568 8.14258 35.3467 8.14258C35.21 8.14258 35.0781 8.13281 34.9512 8.11328C34.8242 8.08398 34.6973 8.0498 34.5703 8.01074C34.4043 7.78613 34.2822 7.51758 34.2041 7.20508C34.1357 6.88281 34.0723 6.55566 34.0137 6.22363C33.9648 5.88184 33.9062 5.5498 33.8379 5.22754C33.7695 4.89551 33.6621 4.60254 33.5156 4.34863C33.3789 4.08496 33.1836 3.875 32.9297 3.71875C32.6855 3.55273 32.3535 3.46973 31.9336 3.46973C31.6699 3.46973 31.4062 3.49902 31.1426 3.55762C30.8887 3.60645 30.625 3.63086 30.3516 3.63086C30.2148 3.63086 30.0537 3.63086 29.8682 3.63086C29.6826 3.62109 29.4922 3.60645 29.2969 3.58691C29.1113 3.55762 28.9307 3.52344 28.7549 3.48438C28.5791 3.44531 28.4326 3.38672 28.3154 3.30859C28.2861 3.28906 28.2373 3.27441 28.1689 3.26465C28.1104 3.25488 28.042 3.25 27.9639 3.25C27.8955 3.24023 27.8223 3.23535 27.7441 3.23535C27.6758 3.23535 27.627 3.23535 27.5977 3.23535C27.3047 3.23535 27.0703 3.25 26.8945 3.2793C26.7285 3.30859 26.5771 3.34766 26.4404 3.39648C26.3135 3.44531 26.1768 3.50391 26.0303 3.57227C25.8936 3.63086 25.6982 3.69434 25.4443 3.7627C25.2588 3.81152 25.1221 3.87012 25.0342 3.93848C24.9561 4.00684 24.9023 4.08984 24.873 4.1875C24.8438 4.27539 24.8291 4.38281 24.8291 4.50977C24.8389 4.63672 24.8389 4.7832 24.8291 4.94922C24.8193 5.06641 24.8096 5.18359 24.7998 5.30078C24.7998 5.4082 24.7998 5.52051 24.7998 5.6377C24.7998 5.98926 24.8096 6.34082 24.8291 6.69238C24.8486 7.04395 24.8584 7.40039 24.8584 7.76172C24.8584 7.98633 24.834 8.20605 24.7852 8.4209C24.7461 8.63574 24.7266 8.85547 24.7266 9.08008C24.7266 9.28516 24.7705 9.42676 24.8584 9.50488C24.9463 9.58301 25.0439 9.6416 25.1514 9.68066C25.2588 9.71973 25.3564 9.76367 25.4443 9.8125C25.542 9.86133 25.5908 9.95898 25.5908 10.1055C25.6592 10.1152 25.7227 10.125 25.7812 10.1348C25.8496 10.1348 25.918 10.1348 25.9863 10.1348C26.3086 10.1348 26.6309 10.0908 26.9531 10.0029C27.2754 9.90527 27.5928 9.81738 27.9053 9.73926C28.1006 9.69043 28.2422 9.54883 28.3301 9.31445C28.418 9.08008 28.4766 8.81641 28.5059 8.52344C28.5352 8.2207 28.5498 7.92285 28.5498 7.62988C28.5498 7.33691 28.5645 7.1123 28.5938 6.95605C28.6133 6.8291 28.6572 6.70703 28.7256 6.58984C28.8037 6.47266 28.8965 6.37012 29.0039 6.28223C29.1113 6.19434 29.2285 6.12598 29.3555 6.07715C29.4824 6.01855 29.6094 5.98926 29.7363 5.98926C29.873 5.98926 29.9951 6.01855 30.1025 6.07715C30.3174 6.18457 30.4688 6.32129 30.5566 6.4873C30.6543 6.64355 30.7178 6.81934 30.7471 7.01465C30.7764 7.20996 30.7861 7.41016 30.7764 7.61523C30.7764 7.82031 30.7861 8.02051 30.8057 8.21582C30.835 8.47949 30.8496 8.73828 30.8496 8.99219C30.8496 9.46094 30.8252 9.91992 30.7764 10.3691C30.7373 10.8184 30.7178 11.2773 30.7178 11.7461C30.7178 12 30.7324 12.249 30.7617 12.4932C30.791 12.7373 30.8447 12.9814 30.9229 13.2256C30.9717 13.4014 30.9961 13.5625 30.9961 13.709C30.9961 13.875 30.9766 14.0361 30.9375 14.1924C30.9082 14.3486 30.8936 14.5098 30.8936 14.6758C30.8936 14.7734 30.8984 14.8662 30.9082 14.9541C30.9277 15.0322 30.9375 15.1201 30.9375 15.2178C30.9375 15.3643 30.8984 15.5205 30.8203 15.6865C30.752 15.8428 30.6641 15.9893 30.5566 16.126C30.4492 16.2529 30.3223 16.3604 30.1758 16.4482C30.0391 16.5361 29.9072 16.5801 29.7803 16.5801C29.6045 16.5801 29.4385 16.5117 29.2822 16.375C29.1357 16.2285 29.0039 16.0674 28.8867 15.8916C28.7695 15.7158 28.6768 15.5498 28.6084 15.3936C28.5498 15.2373 28.5205 15.1445 28.5205 15.1152C28.5205 15.0664 28.54 15.0322 28.5791 15.0127C28.6279 14.9834 28.6768 14.959 28.7256 14.9395C28.7744 14.9102 28.8184 14.8809 28.8574 14.8516C28.9062 14.8125 28.9307 14.7588 28.9307 14.6904C28.9307 14.6416 28.9062 14.6074 28.8574 14.5879C28.8184 14.5586 28.7695 14.5342 28.7109 14.5146C28.6621 14.4854 28.6133 14.4512 28.5645 14.4121C28.5254 14.3633 28.5059 14.2949 28.5059 14.207C28.5059 14.1387 28.5156 14.0898 28.5352 14.0605C28.5547 14.0215 28.5791 13.9922 28.6084 13.9727C28.6377 13.9531 28.6621 13.9336 28.6816 13.9141C28.7012 13.8945 28.7109 13.8701 28.7109 13.8408C28.7109 13.7627 28.6768 13.665 28.6084 13.5479C28.54 13.4209 28.4521 13.2988 28.3447 13.1816C28.2471 13.0645 28.1348 12.9668 28.0078 12.8887C27.8906 12.8008 27.7832 12.7568 27.6855 12.7568C27.5391 12.7568 27.3926 12.7861 27.2461 12.8447C27.1094 12.8936 26.9629 12.918 26.8066 12.918C26.6797 12.918 26.5576 12.8936 26.4404 12.8447C26.333 12.7959 26.2256 12.7715 26.1182 12.7715C26.0205 12.7715 25.9131 12.8154 25.7959 12.9033C25.6787 12.9814 25.5615 13.0791 25.4443 13.1963C25.3369 13.3037 25.2295 13.416 25.1221 13.5332C25.0244 13.6406 24.9463 13.7285 24.8877 13.7969C24.8096 13.875 24.7656 13.9922 24.7559 14.1484C24.7461 14.2949 24.7412 14.4219 24.7412 14.5293C24.7412 14.8711 24.7607 15.208 24.7998 15.54C24.8486 15.8623 24.873 16.1943 24.873 16.5361C24.873 16.6826 24.8682 16.8291 24.8584 16.9756C24.8584 17.1221 24.8584 17.2686 24.8584 17.415C24.8584 17.5322 24.8584 17.6836 24.8584 17.8691C24.8682 18.0547 24.8926 18.2402 24.9316 18.4258C24.9707 18.6113 25.0293 18.7773 25.1074 18.9238C25.1855 19.0703 25.293 19.1631 25.4297 19.2021C25.6348 19.2705 25.8643 19.2949 26.1182 19.2754H26.4111C26.665 19.2754 26.9043 19.2998 27.1289 19.3486C27.3535 19.3975 27.5244 19.5244 27.6416 19.7295C27.7393 19.8955 27.8076 20.0811 27.8467 20.2861C27.8955 20.4814 27.9199 20.6768 27.9199 20.8721C27.9199 20.9893 27.9053 21.1211 27.876 21.2676C27.8564 21.4141 27.8125 21.5508 27.7441 21.6777C27.6855 21.7949 27.6025 21.8975 27.4951 21.9854C27.3975 22.0635 27.2754 22.1025 27.1289 22.1025C26.8457 22.1025 26.543 22.0684 26.2207 22C25.9082 21.9414 25.5957 21.9121 25.2832 21.9121C25.0391 21.9121 24.7998 21.9414 24.5654 22C24.1846 22.1074 23.8037 22.1758 23.4229 22.2051C23.042 22.2344 22.6465 22.249 22.2363 22.249C22.0508 22.249 21.8311 22.2441 21.5771 22.2344C21.3232 22.2246 21.0791 22.1904 20.8447 22.1318C20.6201 22.083 20.4248 22.0098 20.2588 21.9121C20.1025 21.8047 20.0244 21.6582 20.0244 21.4727C20.0244 21.2676 20.0391 21.0479 20.0684 20.8135C20.0977 20.5791 20.1562 20.3643 20.2441 20.1689C20.3418 19.9736 20.4736 19.8125 20.6396 19.6855C20.8057 19.5586 21.0254 19.4951 21.2988 19.4951C21.377 19.4951 21.46 19.5 21.5479 19.5098C21.6357 19.5195 21.7236 19.5244 21.8115 19.5244C21.9971 19.5244 22.1338 19.4951 22.2217 19.4365C22.3096 19.3682 22.3828 19.2949 22.4414 19.2168C22.5 19.1387 22.5586 19.0654 22.6172 18.9971C22.6758 18.9287 22.7637 18.8848 22.8809 18.8652C22.8613 18.5527 22.832 18.25 22.793 17.957C22.7637 17.6543 22.749 17.3467 22.749 17.0342C22.749 16.7705 22.7734 16.5117 22.8223 16.2578C22.8711 16.0039 22.959 15.7598 23.0859 15.5254C22.9883 15.418 22.915 15.2324 22.8662 14.9688C22.8174 14.7051 22.7832 14.4365 22.7637 14.1631C22.7539 13.8896 22.749 13.6553 22.749 13.46C22.749 13.2549 22.749 13.1572 22.749 13.167C22.749 13.001 22.7734 12.8398 22.8223 12.6836C22.8809 12.5176 22.9102 12.3516 22.9102 12.1855C22.9102 12.1074 22.9004 12.0391 22.8809 11.9805C22.8711 11.9121 22.8662 11.8389 22.8662 11.7607C22.8662 11.6436 22.876 11.5605 22.8955 11.5117C22.915 11.4629 22.9395 11.4287 22.9688 11.4092C22.998 11.3896 23.0225 11.3701 23.042 11.3506C23.0615 11.3213 23.0713 11.2676 23.0713 11.1895C23.0713 10.9453 23.0371 10.7061 22.9688 10.4717C22.9102 10.2275 22.8809 9.97852 22.8809 9.72461C22.8809 9.5 22.9004 9.28027 22.9395 9.06543C22.9883 8.84082 23.0127 8.61621 23.0127 8.3916C23.0127 7.95215 22.9883 7.51758 22.9395 7.08789C22.9004 6.64844 22.8809 6.2041 22.8809 5.75488C22.8809 5.53027 22.8613 5.28125 22.8223 5.00781C22.7832 4.72461 22.71 4.46094 22.6025 4.2168C22.4951 3.97266 22.3486 3.76758 22.1631 3.60156C21.9775 3.43555 21.7432 3.35254 21.46 3.35254C21.3232 3.35254 21.1865 3.3623 21.0498 3.38184C20.9229 3.3916 20.791 3.39648 20.6543 3.39648C20.5273 3.39648 20.4053 3.38672 20.2881 3.36719C20.1709 3.33789 20.0586 3.28418 19.9512 3.20605C19.9316 3.02051 19.8877 2.83984 19.8193 2.66406C19.751 2.48828 19.7168 2.30762 19.7168 2.12207C19.7168 1.98535 19.7705 1.87305 19.8779 1.78516C19.9951 1.69727 20.1416 1.62891 20.3174 1.58008C20.4932 1.53125 20.6885 1.49707 20.9033 1.47754C21.1279 1.45801 21.3525 1.44824 21.5771 1.44824C21.8604 1.44824 22.124 1.45801 22.3682 1.47754C22.6221 1.4873 22.8125 1.49219 22.9395 1.49219C23.0762 1.49219 23.2422 1.4873 23.4375 1.47754C23.6426 1.46777 23.8428 1.44824 24.0381 1.41895C24.2432 1.37988 24.4287 1.32129 24.5947 1.24316C24.7607 1.16504 24.8828 1.05273 24.9609 0.90625C25.0781 0.90625 25.1807 0.930664 25.2686 0.979492C25.3564 1.01855 25.4443 1.06738 25.5322 1.12598C25.6201 1.1748 25.708 1.22363 25.7959 1.27246C25.8838 1.31152 25.9814 1.33105 26.0889 1.33105C26.2256 1.33105 26.3525 1.30176 26.4697 1.24316C26.5967 1.1748 26.7285 1.14062 26.8652 1.14062C26.9922 1.14062 27.1045 1.16992 27.2021 1.22852C27.2998 1.27734 27.4121 1.30176 27.5391 1.30176C27.8027 1.30176 28.0615 1.27246 28.3154 1.21387C28.5791 1.15527 28.8428 1.09668 29.1064 1.03809C29.3701 0.969727 29.6289 0.90625 29.8828 0.847656C30.1465 0.789062 30.4102 0.759766 30.6738 0.759766C30.8594 0.759766 31.0303 0.789062 31.1865 0.847656C31.3525 0.896484 31.5039 0.989258 31.6406 1.12598C32.041 0.959961 32.4805 0.876953 32.959 0.876953C33.0176 0.876953 33.1445 0.886719 33.3398 0.90625C33.5352 0.925781 33.7402 0.950195 33.9551 0.979492C34.1699 0.999023 34.3652 1.02344 34.541 1.05273C34.7168 1.08203 34.8145 1.11133 34.834 1.14062C34.8926 1.18945 34.9365 1.27246 34.9658 1.38965C34.9951 1.50684 35.0195 1.63379 35.0391 1.77051C35.0684 1.89746 35.0977 2.02441 35.127 2.15137C35.1562 2.26855 35.2002 2.35645 35.2588 2.41504C35.2979 2.4541 35.3467 2.4834 35.4053 2.50293C35.4736 2.5127 35.5371 2.52734 35.5957 2.54688C35.6543 2.56641 35.7031 2.5957 35.7422 2.63477C35.791 2.66406 35.8203 2.71777 35.8301 2.7959C35.8496 3.03027 35.8643 3.25977 35.874 3.48438C35.8838 3.69922 35.9229 3.92383 35.9912 4.1582C36.0498 4.36328 36.1182 4.57813 36.1963 4.80273C36.2744 5.02734 36.3477 5.25195 36.416 5.47656C36.4941 5.70117 36.5576 5.92578 36.6064 6.15039C36.6553 6.375 36.6797 6.59473 36.6797 6.80957ZM21.2256 20.9453C21.2256 20.7891 21.1914 20.6523 21.123 20.5352C21.0645 20.418 20.9521 20.3496 20.7861 20.3301C20.7861 20.3691 20.7812 20.4082 20.7715 20.4473C20.7715 20.4766 20.7715 20.5107 20.7715 20.5498C20.7715 20.7061 20.8008 20.8428 20.8594 20.96C20.9277 21.0771 21.0449 21.1455 21.2109 21.165C21.2109 21.126 21.2109 21.0918 21.2109 21.0625C21.2207 21.0234 21.2256 20.9844 21.2256 20.9453ZM53.9209 6.70703C53.9209 6.88281 53.916 7.06348 53.9062 7.24902C53.9062 7.4248 53.8867 7.5957 53.8477 7.76172C53.8281 7.84961 53.7842 7.94727 53.7158 8.05469C53.6475 8.15234 53.5645 8.25 53.4668 8.34766C53.3789 8.43555 53.2812 8.51367 53.1738 8.58203C53.0664 8.64062 52.9688 8.66992 52.8809 8.66992C52.7344 8.66992 52.6416 8.61133 52.6025 8.49414C52.5635 8.37695 52.5342 8.25 52.5146 8.11328C52.5049 7.97656 52.4756 7.84961 52.4268 7.73242C52.3877 7.61523 52.29 7.55664 52.1338 7.55664C52.085 7.55664 52.041 7.56641 52.002 7.58594C51.9727 7.60547 51.9336 7.61523 51.8848 7.61523C51.8652 7.61523 51.8457 7.55664 51.8262 7.43945C51.8066 7.32227 51.7822 7.18066 51.7529 7.01465C51.7236 6.84863 51.6895 6.68262 51.6504 6.5166C51.6113 6.34082 51.5674 6.19434 51.5186 6.07715C51.4307 5.8916 51.3379 5.70117 51.2402 5.50586C51.1523 5.30078 51.1084 5.08594 51.1084 4.86133C51.1084 4.70508 51.1377 4.57324 51.1963 4.46582C51.2549 4.34863 51.3184 4.24121 51.3867 4.14355C51.4551 4.0459 51.5186 3.94824 51.5771 3.85059C51.6357 3.75293 51.665 3.63574 51.665 3.49902C51.665 3.30371 51.6016 3.13281 51.4746 2.98633C51.3477 2.83984 51.1865 2.72266 50.9912 2.63477C50.8057 2.53711 50.6055 2.46875 50.3906 2.42969C50.1855 2.38086 50.0049 2.35645 49.8486 2.35645C49.585 2.35645 49.3262 2.39062 49.0723 2.45898C48.8281 2.51758 48.5791 2.59082 48.3252 2.67871C48.0811 2.7666 47.8369 2.85937 47.5928 2.95703C47.3486 3.05469 47.1045 3.1377 46.8604 3.20605C46.9092 3.34277 46.9385 3.48438 46.9482 3.63086C46.9678 3.77734 46.9775 3.92383 46.9775 4.07031C46.9775 4.40234 46.9629 4.73437 46.9336 5.06641C46.9043 5.38867 46.8896 5.71582 46.8896 6.04785C46.8896 6.40918 46.9092 6.77051 46.9482 7.13184C46.9873 7.4834 47.0264 7.83496 47.0654 8.18652C47.1143 8.53809 47.1582 8.89453 47.1973 9.25586C47.2363 9.60742 47.2559 9.95898 47.2559 10.3105C47.2559 10.7402 47.1826 11.1602 47.0361 11.5703C47.0068 11.6484 46.9922 11.7119 46.9922 11.7607C46.9922 11.8682 47.0166 11.9756 47.0654 12.083C47.1143 12.1807 47.168 12.2881 47.2266 12.4053C47.2949 12.5127 47.3535 12.625 47.4023 12.7422C47.4512 12.8594 47.4756 12.9814 47.4756 13.1084C47.4756 13.2256 47.4561 13.3379 47.417 13.4453C47.3779 13.5527 47.3584 13.6602 47.3584 13.7676C47.3584 13.9238 47.3779 14.0752 47.417 14.2217C47.4658 14.3682 47.4902 14.5195 47.4902 14.6758C47.4902 14.7637 47.4658 14.8174 47.417 14.8369C47.3779 14.8564 47.3291 14.8662 47.2705 14.8662C47.2119 14.8662 47.1582 14.8711 47.1094 14.8809C47.0703 14.8809 47.0508 14.9053 47.0508 14.9541C47.0508 15.1006 47.0801 15.2422 47.1387 15.3789C47.207 15.5059 47.2412 15.6426 47.2412 15.7891C47.2412 15.916 47.2119 16.0381 47.1533 16.1553C47.1045 16.2627 47.0801 16.3799 47.0801 16.5068C47.0801 16.6338 47.1338 16.7461 47.2412 16.8438C47.3584 16.9414 47.4414 17.0586 47.4902 17.1953C47.5391 17.3613 47.5781 17.5518 47.6074 17.7666C47.6465 17.9814 47.7148 18.1865 47.8125 18.3818C47.9199 18.5771 48.0811 18.7432 48.2959 18.8799C48.5107 19.0068 48.8281 19.0703 49.248 19.0703H49.6729C49.79 19.0703 49.9316 19.0801 50.0977 19.0996C50.2734 19.1191 50.4395 19.1582 50.5957 19.2168C50.7617 19.2656 50.8984 19.3438 51.0059 19.4512C51.123 19.5488 51.1816 19.6758 51.1816 19.832C51.1816 19.9883 51.1523 20.1396 51.0938 20.2861C51.0352 20.4326 51.0059 20.584 51.0059 20.7402C51.0059 20.7891 51.0156 20.8623 51.0352 20.96C50.8887 20.96 50.7568 20.9941 50.6396 21.0625C50.5322 21.1211 50.4541 21.2236 50.4053 21.3701C50.21 21.3311 50.0098 21.3066 49.8047 21.2969C49.6094 21.2773 49.4141 21.2676 49.2188 21.2676C48.7207 21.2676 48.2275 21.3066 47.7393 21.3848C47.251 21.4531 46.7578 21.5312 46.2598 21.6191C45.7715 21.6973 45.2783 21.7754 44.7803 21.8535C44.292 21.9219 43.7988 21.9561 43.3008 21.9561C43.1348 21.9561 42.9297 21.9512 42.6855 21.9414C42.4414 21.9316 42.207 21.8975 41.9824 21.8389C41.7578 21.7803 41.5625 21.6924 41.3965 21.5752C41.2402 21.4482 41.1621 21.2676 41.1621 21.0332C41.1621 20.7598 41.1865 20.5596 41.2354 20.4326C41.2939 20.2959 41.3623 20.2031 41.4404 20.1543C41.5186 20.0957 41.6064 20.0615 41.7041 20.0518C41.8115 20.042 41.9141 20.0225 42.0117 19.9932C42.041 19.9639 42.0557 19.9346 42.0557 19.9053C42.0557 19.8564 42.0312 19.8174 41.9824 19.7881C41.9434 19.749 41.8994 19.7197 41.8506 19.7002C42.0166 19.5537 42.2021 19.4512 42.4072 19.3926C42.6221 19.334 42.8369 19.2949 43.0518 19.2754C43.2764 19.2559 43.501 19.2363 43.7256 19.2168C43.9502 19.1973 44.1602 19.1484 44.3555 19.0703C44.4336 19.041 44.5166 18.958 44.6045 18.8213C44.6924 18.6846 44.7705 18.5332 44.8389 18.3672C44.917 18.2012 44.9756 18.0352 45.0146 17.8691C45.0635 17.7031 45.0879 17.5762 45.0879 17.4883V17.459C45.0195 16.9902 44.9658 16.5312 44.9268 16.082C44.8877 15.6328 44.8682 15.1738 44.8682 14.7051C44.8682 14.666 44.8828 14.6025 44.9121 14.5146C44.9414 14.417 44.9805 14.3193 45.0293 14.2217C45.0684 14.1143 45.1221 13.9922 45.1904 13.8555C45.1123 13.7285 45.0439 13.6113 44.9854 13.5039C44.9365 13.4062 44.8926 13.3135 44.8535 13.2256C44.8145 13.1377 44.7949 13.0693 44.7949 13.0205C44.7949 12.9033 44.8145 12.791 44.8535 12.6836C44.8926 12.5762 44.9219 12.4688 44.9414 12.3613C45 11.9512 45.0293 11.5361 45.0293 11.1162C45.0293 10.9404 45.0146 10.7695 44.9854 10.6035C44.9658 10.4277 44.9365 10.2568 44.8975 10.0908C44.7705 9.49512 44.707 8.87988 44.707 8.24512C44.707 7.50293 44.7559 6.76562 44.8535 6.0332C44.9512 5.30078 45 4.56348 45 3.82129C45 3.56738 44.9561 3.37207 44.8682 3.23535C44.7803 3.08887 44.6094 2.97656 44.3555 2.89844C44.0137 2.80078 43.6572 2.72266 43.2861 2.66406C42.9248 2.60547 42.5635 2.57617 42.2021 2.57617C41.9287 2.57617 41.6406 2.61035 41.3379 2.67871C41.0449 2.7373 40.7715 2.83984 40.5176 2.98633C40.2734 3.12305 40.0684 3.30859 39.9023 3.54297C39.7461 3.76758 39.668 4.04102 39.668 4.36328C39.668 4.5293 39.6777 4.69043 39.6973 4.84668C39.7168 5.00293 39.7266 5.16406 39.7266 5.33008C39.7266 5.48633 39.6924 5.62305 39.624 5.74023C39.5654 5.84766 39.5361 5.95508 39.5361 6.0625C39.5361 6.20898 39.5752 6.3457 39.6533 6.47266C39.7314 6.59961 39.7705 6.73633 39.7705 6.88281C39.7705 6.98047 39.7461 7.08789 39.6973 7.20508C39.6582 7.32227 39.6094 7.44434 39.5508 7.57129C39.4922 7.68848 39.4336 7.80566 39.375 7.92285C39.3262 8.04004 39.2871 8.14746 39.2578 8.24512C39.209 8.3916 39.1455 8.51855 39.0674 8.62598C38.9893 8.7334 38.8672 8.78711 38.7012 8.78711C38.5645 8.78711 38.4375 8.74316 38.3203 8.65527C38.2031 8.55762 38.1445 8.44043 38.1445 8.30371C38.1445 8.19629 38.1689 8.11328 38.2178 8.05469C38.2764 7.98633 38.3057 7.9082 38.3057 7.82031C38.3057 7.72266 38.2861 7.625 38.2471 7.52734C38.208 7.41992 38.1592 7.31738 38.1006 7.21973C38.0518 7.1123 38.0078 7.00488 37.9688 6.89746C37.9297 6.79004 37.9102 6.68262 37.9102 6.5752C37.9102 6.43848 37.9297 6.30664 37.9688 6.17969C38.0176 6.05273 38.042 5.9209 38.042 5.78418C38.042 5.49121 37.9932 5.20312 37.8955 4.91992C37.8076 4.63672 37.7637 4.34863 37.7637 4.05566C37.7637 3.79199 37.793 3.47949 37.8516 3.11816C37.9102 2.75684 38.0078 2.41016 38.1445 2.07812C38.291 1.74609 38.4766 1.46777 38.7012 1.24316C38.9355 1.00879 39.2285 0.891602 39.5801 0.891602C39.8242 0.891602 40.0635 0.920898 40.2979 0.979492C40.542 1.02832 40.791 1.05273 41.0449 1.05273C41.3281 1.05273 41.6113 1.02832 41.8945 0.979492C42.1777 0.930664 42.4609 0.90625 42.7441 0.90625C42.9395 0.90625 43.1201 0.94043 43.2861 1.00879C43.4619 1.06738 43.6475 1.09668 43.8428 1.09668C43.96 1.09668 44.0576 1.07227 44.1357 1.02344C44.2236 0.964844 44.3213 0.935547 44.4287 0.935547C44.5459 0.935547 44.6582 0.964844 44.7656 1.02344C44.8828 1.07227 45 1.09668 45.1172 1.09668C45.2246 1.09668 45.3223 1.08203 45.4102 1.05273C45.5078 1.02344 45.6055 1.00879 45.7031 1.00879C45.8496 1.00879 45.9912 1.02832 46.1279 1.06738C46.2744 1.10645 46.416 1.12598 46.5527 1.12598L48.3252 0.90625C48.5889 0.886719 48.8525 0.867187 49.1162 0.847656C49.3799 0.828125 49.6484 0.818359 49.9219 0.818359C50.3906 0.818359 50.8545 0.857422 51.3135 0.935547C51.7822 1.00391 52.251 1.0918 52.7197 1.19922V1.21387C53.042 1.29199 53.2715 1.45801 53.4082 1.71191C53.5449 1.96582 53.6328 2.25879 53.6719 2.59082C53.7207 2.91309 53.7402 3.24512 53.7305 3.58691C53.7207 3.92871 53.7256 4.22168 53.7451 4.46582C53.7744 4.83691 53.8086 5.21289 53.8477 5.59375C53.8965 5.96484 53.9209 6.33594 53.9209 6.70703Z" fill="black"/>
<path d="M15.9082 39.1777C15.9082 39.373 15.8984 39.5732 15.8789 39.7783C15.8691 39.9736 15.8398 40.1689 15.791 40.3643C15.752 40.5303 15.6982 40.6865 15.6299 40.833C15.5713 40.9697 15.5322 41.1211 15.5127 41.2871C15.4932 41.3848 15.4736 41.4922 15.4541 41.6094C15.4346 41.7168 15.3613 41.7705 15.2344 41.7705L15.1172 41.7559C14.9609 41.7559 14.8438 41.8193 14.7656 41.9463C14.6875 42.0635 14.624 42.21 14.5752 42.3857C14.5361 42.5518 14.502 42.7227 14.4727 42.8984C14.4531 43.0742 14.4287 43.2158 14.3994 43.3232C14.3701 43.4307 14.3506 43.5283 14.3408 43.6162C14.3408 43.6943 14.3359 43.7676 14.3262 43.8359C14.3262 43.8945 14.3066 43.958 14.2676 44.0264C14.2285 44.0947 14.1602 44.168 14.0625 44.2461C13.9062 44.3633 13.7549 44.4756 13.6084 44.583C13.4619 44.6904 13.3301 44.8174 13.2129 44.9639C13.125 45.0713 13.0664 45.1641 13.0371 45.2422C13.0078 45.3203 12.9785 45.3936 12.9492 45.4619C12.9199 45.5303 12.8711 45.5938 12.8027 45.6523C12.7441 45.7012 12.6416 45.75 12.4951 45.7988C12.2705 45.877 12.0557 45.9648 11.8506 46.0625C11.6455 46.1602 11.4355 46.248 11.2207 46.3262C10.9668 46.4238 10.7275 46.5361 10.5029 46.6631C10.2783 46.7803 10.0488 46.8926 9.81445 47C9.58008 47.1074 9.33594 47.1953 9.08203 47.2637C8.83789 47.3418 8.57422 47.3809 8.29102 47.3809C8.03711 47.3809 7.7832 47.3418 7.5293 47.2637C7.28516 47.1855 7.05566 47.0781 6.84082 46.9414C6.63574 46.9219 6.47949 46.8486 6.37207 46.7217C6.26465 46.5947 6.17676 46.4434 6.1084 46.2676C6.0498 46.1309 5.99121 46.0332 5.93262 45.9746C5.88379 45.916 5.8252 45.877 5.75684 45.8574C5.69824 45.8281 5.62988 45.8037 5.55176 45.7842C5.47363 45.7646 5.38086 45.7207 5.27344 45.6523C4.83398 45.3691 4.43359 45.0176 4.07227 44.5977C3.71094 44.168 3.37402 43.7383 3.06152 43.3086C2.99316 43.2109 2.93945 43.0986 2.90039 42.9717C2.87109 42.835 2.8418 42.7031 2.8125 42.5762C2.7832 42.4395 2.74902 42.3125 2.70996 42.1953C2.68066 42.0684 2.63184 41.9707 2.56348 41.9023C2.43652 41.7754 2.32422 41.707 2.22656 41.6973C2.12891 41.6875 2.0459 41.668 1.97754 41.6387C1.91895 41.5996 1.87012 41.5166 1.83105 41.3896C1.80176 41.2529 1.78711 41.0039 1.78711 40.6426C1.78711 40.418 1.76758 40.1836 1.72852 39.9395C1.68945 39.6953 1.64062 39.4463 1.58203 39.1924C1.5332 38.9287 1.48926 38.665 1.4502 38.4014C1.41113 38.1279 1.3916 37.8594 1.3916 37.5957C1.3916 37.3125 1.40625 37.0293 1.43555 36.7461C1.47461 36.4629 1.51855 36.1797 1.56738 35.8965C1.61621 35.6133 1.66504 35.335 1.71387 35.0615C1.7627 34.7783 1.79688 34.4951 1.81641 34.2119C1.83594 33.9482 1.8457 33.6797 1.8457 33.4062C1.85547 33.1328 1.86523 32.8594 1.875 32.5859C1.89453 32.3125 1.92383 32.0439 1.96289 31.7803C2.00195 31.5166 2.07031 31.2578 2.16797 31.0039C2.26562 30.7305 2.3877 30.4717 2.53418 30.2275C2.69043 29.9834 2.8418 29.7393 2.98828 29.4951C3.13477 29.251 3.27148 29.002 3.39844 28.748C3.52539 28.4941 3.62305 28.2207 3.69141 27.9277C3.73047 27.7422 3.85254 27.5713 4.05762 27.415C4.2627 27.249 4.5166 27.0977 4.81934 26.9609C5.12207 26.8145 5.44922 26.6875 5.80078 26.5801C6.16211 26.4629 6.51855 26.3652 6.87012 26.2871C7.22168 26.1992 7.54395 26.1357 7.83691 26.0967C8.13965 26.0479 8.38379 26.0234 8.56934 26.0234C9.05762 26.0234 9.5166 26.0869 9.94629 26.2139C10.376 26.3311 10.8105 26.4873 11.25 26.6826C11.4453 26.7705 11.6553 26.8438 11.8799 26.9023C12.1143 26.9512 12.334 26.9756 12.5391 26.9756C12.7441 26.9756 12.8955 26.9414 12.9932 26.873C13.1006 26.7949 13.1836 26.707 13.2422 26.6094C13.3008 26.502 13.3496 26.4043 13.3887 26.3164C13.4277 26.2188 13.4863 26.1455 13.5645 26.0967L13.5205 26.1113C13.54 26.0918 13.5742 26.082 13.623 26.082C13.6719 26.0723 13.7256 26.0674 13.7842 26.0674C13.8623 26.0771 13.9551 26.0967 14.0625 26.126C14.1797 26.1553 14.2969 26.1895 14.4141 26.2285C14.5312 26.2676 14.6387 26.3115 14.7363 26.3604C14.8438 26.3994 14.9219 26.4385 14.9707 26.4775C15 26.4971 15.0488 26.5605 15.1172 26.668C15.1855 26.7754 15.2539 26.8926 15.3223 27.0195C15.4004 27.1465 15.4639 27.2637 15.5127 27.3711C15.5713 27.4785 15.6006 27.5469 15.6006 27.5762C15.6006 27.8203 15.6348 28.0498 15.7031 28.2646C15.7812 28.4795 15.8203 28.709 15.8203 28.9531C15.8203 29.207 15.7812 29.4561 15.7031 29.7002C15.6348 29.9443 15.6006 30.1934 15.6006 30.4473C15.6006 30.7598 15.6055 31.0674 15.6152 31.3701C15.6348 31.6631 15.6445 31.9658 15.6445 32.2783C15.6445 32.5615 15.6299 32.8447 15.6006 33.1279C15.5811 33.4014 15.542 33.6748 15.4834 33.9482C15.4639 34.0264 15.4443 34.1191 15.4248 34.2266C15.4053 34.334 15.376 34.4365 15.3369 34.5342C15.3076 34.6318 15.2637 34.7148 15.2051 34.7832C15.1563 34.8516 15.0879 34.8857 15 34.8857C14.9121 34.8857 14.834 34.8711 14.7656 34.8418C14.7168 34.8516 14.6729 34.8613 14.6338 34.8711C14.5947 34.8711 14.5508 34.8711 14.502 34.8711C14.4141 34.8711 14.3604 34.8564 14.3408 34.8271C14.3213 34.7979 14.3115 34.7637 14.3115 34.7246C14.3115 34.6758 14.3018 34.627 14.2822 34.5781C14.2725 34.5195 14.2236 34.4658 14.1357 34.417C14.0771 34.3779 13.999 34.3535 13.9014 34.3438C13.8037 34.334 13.7061 34.3242 13.6084 34.3145C13.5205 34.2949 13.4424 34.2656 13.374 34.2266C13.3057 34.1777 13.2715 34.1045 13.2715 34.0068C13.2715 33.8994 13.291 33.8457 13.3301 33.8457C13.3789 33.8359 13.4326 33.8506 13.4912 33.8896C13.5596 33.9287 13.6328 33.9678 13.7109 34.0068C13.7891 34.0361 13.8623 34.0361 13.9307 34.0068C13.7939 33.8506 13.6719 33.6895 13.5645 33.5234C13.4668 33.3477 13.3643 33.1719 13.2568 32.9961C13.1592 32.8203 13.0566 32.6445 12.9492 32.4688C12.8418 32.293 12.7197 32.1318 12.583 31.9854C12.4658 31.8584 12.3682 31.7119 12.29 31.5459C12.2119 31.3799 12.1338 31.2139 12.0557 31.0479C11.9873 30.8721 11.9092 30.7109 11.8213 30.5645C11.7432 30.4082 11.6406 30.2812 11.5137 30.1836C11.0645 29.8418 10.5664 29.5439 10.0195 29.29C9.48242 29.0264 8.9209 28.8945 8.33496 28.8945C7.9248 28.8945 7.54395 28.958 7.19238 29.085C6.85059 29.2021 6.50879 29.3633 6.16699 29.5684C6.03027 29.6465 5.89844 29.7148 5.77148 29.7734C5.6543 29.832 5.53711 29.9004 5.41992 29.9785C5.3125 30.0469 5.21484 30.1348 5.12695 30.2422C5.04883 30.3398 4.99023 30.4766 4.95117 30.6523C4.90234 30.8281 4.87793 31.0088 4.87793 31.1943C4.8877 31.3799 4.84375 31.5508 4.74609 31.707C4.69727 31.7852 4.61914 31.8486 4.51172 31.8975C4.41406 31.9463 4.35059 32.0195 4.32129 32.1172C4.24316 32.3418 4.19434 32.5762 4.1748 32.8203C4.16504 33.0645 4.15527 33.3135 4.14551 33.5674C4.14551 33.8213 4.14062 34.0801 4.13086 34.3438C4.12109 34.5977 4.08203 34.8418 4.01367 35.0762C3.95508 35.2715 3.91113 35.4668 3.88184 35.6621C3.8623 35.8574 3.85254 36.0527 3.85254 36.248C3.85254 36.6191 3.8623 36.9854 3.88184 37.3467C3.91113 37.6982 3.92578 38.0547 3.92578 38.416C3.92578 38.8555 3.94531 39.2852 3.98438 39.7051C4.0332 40.125 4.11621 40.5449 4.2334 40.9648C4.32129 41.2773 4.44336 41.5801 4.59961 41.873C4.75586 42.1562 4.87305 42.4541 4.95117 42.7666C4.99023 42.9326 5.05859 43.1084 5.15625 43.2939C5.26367 43.4795 5.38574 43.6504 5.52246 43.8066C5.66895 43.9629 5.83008 44.0947 6.00586 44.2021C6.18164 44.2998 6.3623 44.3486 6.54785 44.3486C6.68457 44.3486 6.81641 44.334 6.94336 44.3047C7.07031 44.2656 7.20215 44.2461 7.33887 44.2461C7.48535 44.2461 7.63184 44.2607 7.77832 44.29C7.9248 44.3096 8.07129 44.3193 8.21777 44.3193C8.48145 44.3193 8.75488 44.2852 9.03809 44.2168C9.33105 44.1484 9.5752 44.0117 9.77051 43.8066C9.90723 43.6602 10.0635 43.5576 10.2393 43.499C10.415 43.4404 10.5908 43.3916 10.7666 43.3525C10.9521 43.3135 11.1279 43.2646 11.2939 43.2061C11.46 43.1377 11.6064 43.0205 11.7334 42.8545C11.8115 42.7471 11.8896 42.5811 11.9678 42.3564C12.0557 42.1318 12.1436 41.8975 12.2314 41.6533C12.3193 41.4092 12.4072 41.1895 12.4951 40.9941C12.5928 40.7891 12.6904 40.6621 12.7881 40.6133C12.876 40.5645 12.9297 40.4424 12.9492 40.2471C12.9785 40.042 12.9932 39.8027 12.9932 39.5293V38.8555C12.9932 38.6602 12.998 38.4697 13.0078 38.2842C13.0176 38.0986 13.0371 37.9326 13.0664 37.7861C13.1055 37.6396 13.1592 37.5225 13.2275 37.4346C13.2959 37.3467 13.3887 37.3027 13.5059 37.3027C13.6133 37.3027 13.6963 37.3418 13.7549 37.4199C13.8232 37.4883 13.9062 37.5225 14.0039 37.5225C14.1016 37.5225 14.1943 37.4932 14.2822 37.4346C14.3799 37.3662 14.4824 37.332 14.5898 37.332C14.7363 37.332 14.8682 37.3955 14.9854 37.5225C15.1123 37.6494 15.2246 37.791 15.3223 37.9473C15.4297 38.1035 15.5127 38.25 15.5713 38.3867C15.6396 38.5137 15.6885 38.582 15.7178 38.5918C15.8154 38.6113 15.8691 38.6943 15.8789 38.8408C15.8984 38.9775 15.9082 39.0898 15.9082 39.1777ZM34.1895 44.4365C34.1895 44.6025 34.1602 44.7588 34.1016 44.9053C34.043 45.0518 33.9893 45.2031 33.9404 45.3594C33.9014 45.4961 33.8721 45.6084 33.8525 45.6963C33.8428 45.7842 33.8232 45.8623 33.7939 45.9307C33.7646 45.9893 33.7158 46.0479 33.6475 46.1064C33.5889 46.1553 33.4912 46.2139 33.3545 46.2822C33.0615 46.4385 32.749 46.5996 32.417 46.7656C32.0947 46.9219 31.7676 47 31.4355 47C31.1523 47 30.8838 46.9365 30.6299 46.8096C30.3857 46.6729 30.1562 46.5264 29.9414 46.3701C29.7363 46.2041 29.5459 46.0527 29.3701 45.916C29.2041 45.7793 29.0625 45.7109 28.9453 45.7109C28.8184 45.7109 28.7061 45.7451 28.6084 45.8135C28.5205 45.8818 28.4277 45.9551 28.3301 46.0332C28.2422 46.1113 28.1396 46.1846 28.0225 46.2529C27.915 46.3213 27.7783 46.3555 27.6123 46.3555C27.4756 46.3555 27.334 46.3799 27.1875 46.4287C27.041 46.4775 26.8945 46.5361 26.748 46.6045C26.6016 46.6631 26.4502 46.7266 26.2939 46.7949C26.1475 46.8535 26.0107 46.9023 25.8838 46.9414C25.4443 47.0586 25 47.127 24.5508 47.1465C24.1113 47.166 23.667 47.1758 23.2178 47.1758C23.1006 47.1758 22.9199 47.1709 22.6758 47.1611C22.4316 47.1611 22.1826 47.1367 21.9287 47.0879C21.6846 47.0488 21.4648 46.9805 21.2695 46.8828C21.084 46.7852 20.9912 46.6484 20.9912 46.4727C20.9912 46.4336 20.9961 46.3994 21.0059 46.3701C20.9375 46.4482 20.8594 46.5117 20.7715 46.5605C20.6836 46.6094 20.5859 46.6338 20.4785 46.6338C20.3223 46.6338 20.1318 46.5264 19.9072 46.3115C19.6826 46.0967 19.4678 45.8477 19.2627 45.5645C19.0576 45.2812 18.8818 45.0029 18.7354 44.7295C18.5889 44.4463 18.5156 44.2363 18.5156 44.0996C18.5156 43.9922 18.5449 43.8945 18.6035 43.8066C18.6719 43.7188 18.7061 43.6211 18.7061 43.5137C18.7061 43.377 18.6865 43.25 18.6475 43.1328C18.6182 43.0059 18.6035 42.874 18.6035 42.7373C18.6035 42.5615 18.6377 42.376 18.7061 42.1807C18.7744 41.9756 18.8574 41.7754 18.9551 41.5801C19.0527 41.375 19.1553 41.1797 19.2627 40.9941C19.3701 40.7988 19.4678 40.6182 19.5557 40.4521C19.6533 40.2568 19.79 40.1006 19.9658 39.9834C20.1416 39.8662 20.3271 39.7637 20.5225 39.6758C20.7178 39.5879 20.9131 39.5 21.1084 39.4121C21.3037 39.3242 21.4746 39.207 21.6211 39.0605C21.7676 39.2266 21.958 39.3096 22.1924 39.3096C22.4365 39.3096 22.6758 39.2754 22.9102 39.207C23.1445 39.1289 23.3838 39.0898 23.6279 39.0898C23.8232 39.0898 24.0088 39.1094 24.1846 39.1484C24.3701 39.1875 24.5605 39.207 24.7559 39.207C24.9707 39.207 25.127 39.1826 25.2246 39.1338C25.332 39.0752 25.4639 38.9775 25.6201 38.8408C25.7764 38.7041 25.9717 38.6016 26.2061 38.5332C26.4502 38.4551 26.6992 38.3965 26.9531 38.3574C27.2168 38.3086 27.4756 38.2598 27.7295 38.2109C27.9932 38.1621 28.2275 38.0938 28.4326 38.0059C28.6377 37.9082 28.8037 37.7812 28.9307 37.625C29.0576 37.459 29.1211 37.2344 29.1211 36.9512C29.1211 36.6387 29.0283 36.3115 28.8428 35.9697C28.667 35.6182 28.4375 35.3008 28.1543 35.0176C27.8711 34.7246 27.5586 34.4854 27.2168 34.2998C26.875 34.1143 26.5479 34.0215 26.2354 34.0215C26.1963 34.0215 26.1572 34.0264 26.1182 34.0361C26.0791 34.0459 26.0449 34.0508 26.0156 34.0508C25.7812 34.0898 25.5176 34.1191 25.2246 34.1387C24.9316 34.1484 24.6582 34.1924 24.4043 34.2705C24.1504 34.3389 23.9355 34.4609 23.7598 34.6367C23.584 34.8027 23.4961 35.0518 23.4961 35.3838C23.4961 35.5791 23.5107 35.7744 23.54 35.9697C23.5791 36.1553 23.5986 36.3457 23.5986 36.541C23.5986 36.834 23.5254 37.0781 23.3789 37.2734C23.2422 37.4688 23.0615 37.625 22.8369 37.7422C22.6221 37.8594 22.3828 37.9424 22.1191 37.9912C21.8555 38.0303 21.6016 38.0498 21.3574 38.0498C21.0645 38.0498 20.8105 38.0107 20.5957 37.9326C20.3809 37.8545 20.2051 37.6738 20.0684 37.3906C19.9609 37.1855 19.8438 36.9658 19.7168 36.7314C19.5996 36.4873 19.541 36.2432 19.541 35.999C19.541 35.7354 19.585 35.4912 19.6729 35.2666C19.7705 35.0322 19.8779 34.8076 19.9951 34.5928C20.1123 34.3682 20.2246 34.1484 20.332 33.9336C20.4492 33.709 20.5322 33.4697 20.5811 33.2158C20.6494 33.1768 20.7422 33.1377 20.8594 33.0986C20.9863 33.0596 21.1182 33.0205 21.2549 32.9814C21.4014 32.9424 21.5381 32.9082 21.665 32.8789C21.8018 32.8398 21.9141 32.8057 22.002 32.7764C22.2363 32.708 22.4609 32.6299 22.6758 32.542C22.9004 32.4443 23.125 32.3564 23.3496 32.2783C23.584 32.2002 23.8135 32.1318 24.0381 32.0732C24.2725 32.0146 24.5117 31.9805 24.7559 31.9707L25.21 31.9561C25.6299 31.9561 26.0596 31.9951 26.499 32.0732C26.9385 32.1416 27.3682 32.2539 27.7881 32.4102C28.208 32.5664 28.6035 32.7617 28.9746 32.9961C29.3555 33.2207 29.6924 33.4893 29.9854 33.8018C30.2002 34.0361 30.376 34.3145 30.5127 34.6367C30.6592 34.9492 30.7715 35.2812 30.8496 35.6328C30.9375 35.9844 30.9961 36.3408 31.0254 36.7021C31.0645 37.0537 31.084 37.3809 31.084 37.6836C31.084 38.0938 31.0693 38.499 31.04 38.8994C31.0205 39.29 31.0107 39.6904 31.0107 40.1006C31.0107 40.4912 31.0303 40.8818 31.0693 41.2725C31.1182 41.6533 31.1719 42.0391 31.2305 42.4297C31.2891 42.8105 31.3379 43.1963 31.377 43.5869C31.4258 43.9678 31.4502 44.3486 31.4502 44.7295C31.4697 44.9639 31.499 45.1104 31.5381 45.1689C31.5869 45.2178 31.6357 45.2422 31.6846 45.2422C31.8994 45.2422 32.0703 45.1787 32.1973 45.0518C32.334 44.915 32.4561 44.7686 32.5635 44.6123C32.6709 44.4463 32.7881 44.2949 32.915 44.1582C33.042 44.0215 33.2031 43.9531 33.3984 43.9531C33.4863 43.9531 33.5742 43.958 33.6621 43.9678C33.7598 43.9775 33.8477 44.002 33.9258 44.041C34.0039 44.0703 34.0674 44.1191 34.1162 44.1875C34.165 44.2461 34.1895 44.3291 34.1895 44.4365ZM29.3701 40.7891C29.3701 40.7305 29.3652 40.6279 29.3555 40.4814C29.3555 40.335 29.3457 40.1885 29.3262 40.042C29.3066 39.8857 29.2725 39.749 29.2236 39.6318C29.1846 39.5146 29.1211 39.4561 29.0332 39.4561C29.0137 39.4561 28.9893 39.4658 28.96 39.4854C28.9307 39.4951 28.9062 39.5 28.8867 39.5C28.5156 39.7051 28.1982 39.876 27.9346 40.0127C27.6709 40.1396 27.4072 40.2471 27.1436 40.335C26.8896 40.4131 26.6162 40.4668 26.3232 40.4961C26.0303 40.5254 25.6641 40.54 25.2246 40.54C25.166 40.54 25.0049 40.5645 24.7412 40.6133C24.4775 40.6621 24.1895 40.7207 23.877 40.7891C23.5645 40.8477 23.2715 40.9111 22.998 40.9795C22.7246 41.0381 22.5537 41.0771 22.4854 41.0967C22.3584 41.1455 22.2656 41.1943 22.207 41.2432C22.1582 41.292 22.1191 41.3457 22.0898 41.4043C22.0605 41.4629 22.0312 41.5264 22.002 41.5947C21.9727 41.6533 21.9189 41.7168 21.8408 41.7852C21.7432 41.8633 21.6357 41.9268 21.5186 41.9756C21.4111 42.0244 21.3086 42.0977 21.2109 42.1953C21.0645 42.3418 20.9277 42.5371 20.8008 42.7812C20.6738 43.0156 20.6104 43.2402 20.6104 43.4551C20.6104 43.7188 20.6787 43.9531 20.8154 44.1582C20.9521 44.3633 21.1328 44.5391 21.3574 44.6855C21.582 44.832 21.8359 44.959 22.1191 45.0664C22.4023 45.1738 22.6855 45.2568 22.9688 45.3154C23.2617 45.374 23.54 45.418 23.8037 45.4473C24.0771 45.4766 24.3115 45.4912 24.5068 45.4912C24.7412 45.4912 25.0195 45.4766 25.3418 45.4473C25.6641 45.4082 25.9863 45.3545 26.3086 45.2861C26.6309 45.208 26.9336 45.1055 27.2168 44.9785C27.5 44.8516 27.7246 44.6904 27.8906 44.4951C27.959 44.417 28.0078 44.3486 28.0371 44.29C28.0664 44.2217 28.0957 44.1582 28.125 44.0996C28.1641 44.0312 28.2031 43.9629 28.2422 43.8945C28.291 43.8262 28.3643 43.7529 28.4619 43.6748C28.6865 43.4893 28.8574 43.2842 28.9746 43.0596C29.1016 42.835 29.1943 42.6006 29.2529 42.3564C29.3115 42.1123 29.3457 41.8584 29.3555 41.5947C29.3652 41.3311 29.3701 41.0625 29.3701 40.7891ZM48.75 42.5176C48.75 42.6445 48.7256 42.7715 48.6768 42.8984C48.6377 43.0156 48.5889 43.1377 48.5303 43.2646C48.4717 43.3818 48.4131 43.499 48.3545 43.6162C48.3057 43.7334 48.2715 43.8555 48.252 43.9824C48.2031 44.2461 48.1006 44.4854 47.9443 44.7002C47.7979 44.9053 47.627 45.1006 47.4316 45.2861C47.2363 45.4717 47.0312 45.6523 46.8164 45.8281C46.6016 45.9941 46.4111 46.165 46.2451 46.3408C46.0986 46.4873 45.9424 46.5605 45.7764 46.5605C45.6787 46.5605 45.5859 46.5508 45.498 46.5312C45.4102 46.5117 45.3174 46.502 45.2197 46.502C45.083 46.502 44.9707 46.5264 44.8828 46.5752C44.8047 46.624 44.7266 46.6777 44.6484 46.7363C44.5801 46.7852 44.4922 46.834 44.3848 46.8828C44.2871 46.9316 44.1504 46.9561 43.9746 46.9561C43.8477 46.9561 43.7256 46.9902 43.6084 47.0586C43.4912 47.127 43.374 47.1611 43.2568 47.1611C43.0908 47.1611 42.8955 47.1123 42.6709 47.0146C42.4561 46.917 42.2168 46.8682 41.9531 46.8682C41.7871 46.8682 41.6211 46.8779 41.4551 46.8975C41.2891 46.9072 41.123 46.9121 40.957 46.9121C40.8105 46.9121 40.6641 46.8926 40.5176 46.8535C40.3809 46.8047 40.2441 46.7559 40.1074 46.707C39.9805 46.6484 39.8486 46.5996 39.7119 46.5605C39.5752 46.5117 39.4336 46.4873 39.2871 46.4873C38.9941 46.4873 38.7451 46.5605 38.54 46.707C38.335 46.8535 38.1494 47.0146 37.9834 47.1904C37.8271 47.376 37.666 47.542 37.5 47.6885C37.3438 47.835 37.1631 47.9082 36.958 47.9082C36.7725 47.9082 36.6455 47.874 36.5771 47.8057C36.5186 47.7471 36.4795 47.6738 36.46 47.5859C36.4502 47.498 36.4404 47.4004 36.4307 47.293C36.4209 47.1953 36.377 47.1074 36.2988 47.0293C36.1523 46.873 36.0547 46.7314 36.0059 46.6045C35.957 46.4678 35.9326 46.292 35.9326 46.0771C35.9326 45.6084 35.9717 45.1543 36.0498 44.7148C36.1377 44.2656 36.1816 43.8066 36.1816 43.3379C36.1816 43.1719 36.1621 43.0107 36.123 42.8545C36.084 42.6982 36.0352 42.5566 35.9766 42.4297C35.9277 42.3027 35.8838 42.1953 35.8447 42.1074C35.8057 42.0195 35.7861 41.9561 35.7861 41.917C35.7861 41.8291 35.8105 41.7363 35.8594 41.6387C35.9082 41.541 35.9619 41.4531 36.0205 41.375C36.0889 41.2871 36.1572 41.2188 36.2256 41.1699C36.3037 41.1113 36.3672 41.082 36.416 41.082C36.5137 41.082 36.5967 41.1064 36.665 41.1553C36.7432 41.2041 36.8164 41.2578 36.8848 41.3164C36.9629 41.3652 37.0361 41.4141 37.1045 41.4629C37.1826 41.5117 37.2754 41.5361 37.3828 41.5361C37.4023 41.5361 37.417 41.5361 37.4268 41.5361C37.4365 41.5264 37.4512 41.5215 37.4707 41.5215C37.6074 41.7461 37.7148 41.9902 37.793 42.2539C37.8711 42.5078 37.9492 42.7617 38.0273 43.0156C38.1152 43.2598 38.2178 43.499 38.335 43.7334C38.4619 43.958 38.6377 44.1582 38.8623 44.334C38.9209 44.3828 38.9893 44.4365 39.0674 44.4951C39.1455 44.5537 39.2236 44.6123 39.3018 44.6709C39.3896 44.7295 39.4727 44.7783 39.5508 44.8174C39.6387 44.8564 39.7168 44.876 39.7852 44.876C39.8926 44.876 39.9951 44.8662 40.0928 44.8467C40.2002 44.8271 40.3076 44.8174 40.415 44.8174C40.5615 44.8174 40.6348 44.8662 40.6348 44.9639C40.6348 44.9834 40.625 45.0225 40.6055 45.0811H40.7812H40.8838C41.2549 45.0811 41.626 45.0371 41.9971 44.9492C42.3682 44.8613 42.7441 44.8174 43.125 44.8174C43.3008 44.8174 43.4766 44.8369 43.6523 44.876C43.8379 44.9053 44.0039 44.9736 44.1504 45.0811C44.3359 44.9932 44.4922 44.8809 44.6191 44.7441C44.7461 44.6074 44.873 44.4756 45 44.3486C45.127 44.2119 45.2686 44.0947 45.4248 43.9971C45.5811 43.8896 45.7812 43.8311 46.0254 43.8213C46.0742 43.7627 46.0986 43.6943 46.0986 43.6162C46.1084 43.5381 46.1133 43.4648 46.1133 43.3965C46.1133 43.3184 46.1182 43.2451 46.1279 43.1768C46.1475 43.1084 46.1865 43.0449 46.2451 42.9863C46.3428 42.8984 46.416 42.8105 46.4648 42.7227C46.5234 42.625 46.5527 42.5078 46.5527 42.3711C46.5527 42.1074 46.4795 41.8633 46.333 41.6387C46.1865 41.4043 45.9961 41.1943 45.7617 41.0088C45.5371 40.8135 45.2734 40.6426 44.9707 40.4961C44.6777 40.3398 44.375 40.208 44.0625 40.1006C43.7598 39.9932 43.4668 39.915 43.1836 39.8662C42.9004 39.8076 42.6514 39.7783 42.4365 39.7783C42.1924 39.7783 41.9482 39.8027 41.7041 39.8516C41.4697 39.8906 41.2402 39.9639 41.0156 40.0713C41.0156 39.8564 40.9668 39.7148 40.8691 39.6465C40.7715 39.5781 40.6543 39.5293 40.5176 39.5C40.3809 39.4707 40.2393 39.4316 40.0928 39.3828C39.9561 39.3242 39.8486 39.2021 39.7705 39.0166C39.6045 39.2314 39.3945 39.3877 39.1406 39.4854C38.8965 39.583 38.6475 39.6318 38.3936 39.6318C38.1396 39.6318 37.9053 39.583 37.6904 39.4854C37.4756 39.3877 37.2803 39.2559 37.1045 39.0898C36.9385 38.9238 36.8018 38.7334 36.6943 38.5186C36.5967 38.3037 36.543 38.0742 36.5332 37.8301C36.5234 37.6641 36.4893 37.5176 36.4307 37.3906C36.3721 37.2637 36.3086 37.1416 36.2402 37.0244C36.1719 36.9072 36.1084 36.7852 36.0498 36.6582C36.001 36.5312 35.9766 36.3799 35.9766 36.2041C35.9766 35.7646 35.9961 35.4229 36.0352 35.1787C36.084 34.9248 36.1426 34.7344 36.2109 34.6074C36.2793 34.4707 36.3525 34.3779 36.4307 34.3291C36.5186 34.2705 36.6064 34.2168 36.6943 34.168C36.7822 34.1094 36.8652 34.0312 36.9434 33.9336C37.0215 33.8359 37.085 33.6797 37.1338 33.4648C37.1631 33.3184 37.207 33.2207 37.2656 33.1719C37.3242 33.123 37.4268 33.0889 37.5732 33.0693C37.7002 33.0498 37.7832 33.0205 37.8223 32.9814C37.8613 32.9424 37.8857 32.8984 37.8955 32.8496C37.915 32.8008 37.9346 32.752 37.9541 32.7031C37.9736 32.6445 38.0225 32.5908 38.1006 32.542C38.3057 32.4053 38.5059 32.3223 38.7012 32.293C38.9062 32.2539 39.1162 32.2344 39.3311 32.2344C39.458 32.2344 39.5801 32.2393 39.6973 32.249C39.8145 32.249 39.9414 32.249 40.0781 32.249C40.4883 32.249 40.8887 32.2295 41.2793 32.1904C41.6699 32.1514 42.0703 32.1318 42.4805 32.1318C42.793 32.1318 43.0762 32.166 43.3301 32.2344C43.5938 32.293 43.8232 32.3613 44.0186 32.4395C44.2139 32.5176 44.3799 32.5908 44.5166 32.6592C44.6631 32.7178 44.7803 32.7471 44.8682 32.7471C45.0342 32.7471 45.1904 32.7178 45.3369 32.6592C45.4932 32.5908 45.6543 32.5518 45.8203 32.542C45.8984 32.6104 45.9863 32.6738 46.084 32.7324C46.1914 32.7812 46.2988 32.8057 46.4062 32.8057C46.4844 32.8057 46.543 32.7812 46.582 32.7324C46.6211 32.6836 46.6455 32.6201 46.6553 32.542C46.792 32.5811 46.9238 32.6494 47.0508 32.7471C47.1777 32.8447 47.29 32.9619 47.3877 33.0986C47.4951 33.2256 47.5781 33.3672 47.6367 33.5234C47.6953 33.6699 47.7246 33.8115 47.7246 33.9482C47.7246 34.3096 47.6953 34.6709 47.6367 35.0322C47.5879 35.3838 47.5635 35.7402 47.5635 36.1016C47.5635 36.4727 47.6123 36.8193 47.71 37.1416C47.5732 37.249 47.4219 37.3467 47.2559 37.4346C47.0996 37.5127 46.9678 37.625 46.8604 37.7715L46.8457 37.7568C46.7773 37.6982 46.6895 37.625 46.582 37.5371C46.4844 37.4395 46.377 37.3467 46.2598 37.2588C46.1523 37.1709 46.0449 37.0977 45.9375 37.0391C45.8301 36.9707 45.7324 36.9365 45.6445 36.9365H45.6152C45.5664 36.9072 45.5225 36.873 45.4834 36.834C45.4541 36.7949 45.4395 36.7461 45.4395 36.6875C45.4395 36.5898 45.4688 36.502 45.5273 36.4238C45.5859 36.3457 45.6152 36.2578 45.6152 36.1602C45.6152 36.1309 45.5713 36.0625 45.4834 35.9551C45.3955 35.8477 45.293 35.7402 45.1758 35.6328C45.0684 35.5156 44.9609 35.4131 44.8535 35.3252C44.7461 35.2275 44.668 35.1738 44.6191 35.1641C44.5215 35.1445 44.4189 35.1104 44.3115 35.0615C44.2041 35.0127 44.0967 34.9639 43.9893 34.915C43.8818 34.8662 43.7793 34.8223 43.6816 34.7832C43.5938 34.7441 43.5205 34.7246 43.4619 34.7246C43.335 34.7246 43.208 34.7441 43.0811 34.7832C42.9541 34.8125 42.8223 34.832 42.6855 34.8418H42.7002L42.041 34.7686C41.7188 34.7295 41.4014 34.6514 41.0889 34.5342C40.7764 34.417 40.4541 34.3584 40.1221 34.3584C39.8291 34.3584 39.6143 34.4268 39.4775 34.5635C39.3408 34.7002 39.2285 34.8564 39.1406 35.0322C39.0527 35.1982 38.9648 35.3496 38.877 35.4863C38.7891 35.623 38.6426 35.6914 38.4375 35.6914C38.3789 35.6914 38.335 35.6865 38.3057 35.6768C38.4033 35.9893 38.4912 36.2529 38.5693 36.4678C38.6572 36.6826 38.7598 36.8779 38.877 37.0537C38.9941 37.2197 39.1406 37.3809 39.3164 37.5371C39.4922 37.6836 39.7168 37.8447 39.9902 38.0205C40.0195 38.04 40.0586 38.0742 40.1074 38.123C40.166 38.1719 40.2246 38.2256 40.2832 38.2842C40.3418 38.333 40.3955 38.377 40.4443 38.416C40.5029 38.4551 40.5469 38.4746 40.5762 38.4746C40.7422 38.4746 40.8984 38.4355 41.0449 38.3574C41.2012 38.2793 41.3623 38.2402 41.5283 38.2402C41.6455 38.2402 41.7529 38.2695 41.8506 38.3281C41.958 38.377 42.0703 38.4014 42.1875 38.4014C42.3047 38.4014 42.417 38.3818 42.5244 38.3428C42.6318 38.2939 42.749 38.2695 42.876 38.2695C42.9248 38.2695 42.9736 38.2744 43.0225 38.2842C43.0811 38.2939 43.1348 38.3037 43.1836 38.3135C43.4766 38.3916 43.7695 38.4307 44.0625 38.4307C44.3555 38.4209 44.6533 38.4209 44.9561 38.4307C45.1709 38.4307 45.3857 38.4697 45.6006 38.5479C45.8252 38.626 46.04 38.7285 46.2451 38.8555C46.4502 38.9727 46.6406 39.1094 46.8164 39.2656C46.9922 39.4219 47.1436 39.583 47.2705 39.749C47.3682 39.8857 47.4756 40.0078 47.5928 40.1152C47.71 40.2227 47.8223 40.335 47.9297 40.4521C48.0469 40.5596 48.1494 40.6768 48.2373 40.8037C48.3252 40.9307 48.3887 41.0771 48.4277 41.2432C48.4766 41.4385 48.54 41.6533 48.6182 41.8877C48.7061 42.1221 48.75 42.332 48.75 42.5176ZM64.5557 41.7998C64.5557 42.1123 64.5215 42.4102 64.4531 42.6934C64.3848 42.9668 64.3066 43.2402 64.2188 43.5137C64.1309 43.7773 64.0381 44.0508 63.9404 44.334C63.8525 44.6074 63.7842 44.8906 63.7354 45.1836C63.6475 45.6719 63.4717 46.0771 63.208 46.3994C62.9443 46.7217 62.627 46.9756 62.2559 47.1611C61.8848 47.3564 61.4697 47.498 61.0107 47.5859C60.5615 47.6836 60.0977 47.7568 59.6191 47.8057C59.1406 47.8545 58.667 47.8887 58.1982 47.9082C57.7393 47.9277 57.3145 47.9619 56.9238 48.0107C56.7773 47.9033 56.6553 47.7861 56.5576 47.6592C56.46 47.5322 56.3672 47.4102 56.2793 47.293C56.1914 47.1855 56.0938 47.0928 55.9863 47.0146C55.8789 46.9463 55.7373 46.9121 55.5615 46.9121C55.5029 46.9121 55.4541 46.834 55.415 46.6777C55.3857 46.5117 55.3564 46.3311 55.3271 46.1357C55.2979 45.9307 55.2637 45.75 55.2246 45.5938C55.1953 45.4277 55.1514 45.3447 55.0928 45.3447C54.8682 45.3447 54.6875 45.2959 54.5508 45.1982C54.4238 45.1006 54.3213 44.9785 54.2432 44.832C54.1748 44.6758 54.126 44.5049 54.0967 44.3193C54.0771 44.1338 54.0674 43.9531 54.0674 43.7773C54.0674 43.6406 54.0381 43.5137 53.9795 43.3965C53.9209 43.2793 53.8574 43.167 53.7891 43.0596C53.7207 42.9424 53.6572 42.8252 53.5986 42.708C53.54 42.5908 53.5107 42.4688 53.5107 42.3418C53.5107 42.1953 53.5156 42.0146 53.5254 41.7998C53.5449 41.5752 53.5596 41.3457 53.5693 41.1113C53.5889 40.877 53.6035 40.6475 53.6133 40.4229C53.6328 40.1982 53.6426 40.0127 53.6426 39.8662C53.6426 39.6904 53.6621 39.5439 53.7012 39.4268C53.75 39.3096 53.8037 39.207 53.8623 39.1191C53.9209 39.0312 53.9697 38.9531 54.0088 38.8848C54.0576 38.8164 54.082 38.7383 54.082 38.6504C54.082 38.5332 54.0527 38.4355 53.9941 38.3574C53.9453 38.2793 53.9209 38.2012 53.9209 38.123C53.9209 38.0156 53.9551 37.9131 54.0234 37.8154C54.0918 37.708 54.1406 37.6006 54.1699 37.4932C54.2773 37.0635 54.3311 36.6387 54.3311 36.2188C54.3311 36.1309 54.3262 36.0479 54.3164 35.9697C54.3164 35.8818 54.3115 35.7988 54.3018 35.7207C54.0771 35.5352 53.8281 35.418 53.5547 35.3691C53.2812 35.3105 53.0078 35.2715 52.7344 35.252C52.4609 35.2227 52.1973 35.1885 51.9434 35.1494C51.6895 35.1104 51.4746 35.0078 51.2988 34.8418C51.1523 34.7051 51.0205 34.5537 50.9033 34.3877C50.7861 34.2119 50.6299 34.0947 50.4346 34.0361C50.2979 33.9873 50.1807 33.9238 50.083 33.8457C49.9951 33.7578 49.9512 33.6357 49.9512 33.4795C49.9512 33.2451 50.0195 33.0693 50.1562 32.9521C50.3027 32.8252 50.4736 32.7275 50.6689 32.6592C50.8643 32.5811 51.0645 32.5176 51.2695 32.4688C51.4844 32.4102 51.665 32.3271 51.8115 32.2197C51.958 32.1123 52.1338 32.0586 52.3389 32.0586C52.4268 32.0586 52.5098 32.0635 52.5879 32.0732C52.6758 32.0732 52.7637 32.0732 52.8516 32.0732C53.0957 32.0732 53.2959 32.0342 53.4521 31.9561C53.6182 31.8682 53.7451 31.7559 53.833 31.6191C53.9307 31.4727 53.9941 31.3066 54.0234 31.1211C54.0625 30.9355 54.082 30.7354 54.082 30.5205C54.082 30.208 54.0625 29.9053 54.0234 29.6123C53.9844 29.3193 53.9648 29.0166 53.9648 28.7041C53.9648 28.3428 54.0137 28.0107 54.1113 27.708C54.209 27.4053 54.3945 27.127 54.668 26.873C54.7266 26.8242 54.79 26.7607 54.8584 26.6826C54.9268 26.6045 55 26.5312 55.0781 26.4629C55.1562 26.3848 55.2344 26.3213 55.3125 26.2725C55.4004 26.2236 55.4883 26.1992 55.5762 26.1992C55.6348 26.1992 55.6836 26.2139 55.7227 26.2432C55.7715 26.2627 55.8203 26.292 55.8691 26.3311C56.084 26.5459 56.2207 26.707 56.2793 26.8145C56.3477 26.9121 56.3818 27.0293 56.3818 27.166C56.3818 27.2441 56.377 27.332 56.3672 27.4297C56.3672 27.5176 56.3672 27.6348 56.3672 27.7812C56.3672 28.0938 56.4062 28.4014 56.4844 28.7041C56.5625 29.0068 56.6016 29.2656 56.6016 29.4805C56.6016 29.666 56.5625 29.8467 56.4844 30.0225C56.416 30.1885 56.3818 30.3643 56.3818 30.5498C56.3818 30.6865 56.4111 30.8135 56.4697 30.9307C56.5381 31.0381 56.6113 31.1455 56.6895 31.2529C56.7773 31.3604 56.8555 31.4727 56.9238 31.5898C56.9922 31.6973 57.0264 31.8242 57.0264 31.9707C57.124 32.0391 57.3438 32.1025 57.6855 32.1611C58.0273 32.21 58.4082 32.2539 58.8281 32.293C59.248 32.3223 59.6729 32.3467 60.1025 32.3662C60.5322 32.3857 60.8887 32.3955 61.1719 32.3955C61.4258 32.3955 61.6211 32.415 61.7578 32.4541C61.8945 32.4932 62.0068 32.5371 62.0947 32.5859C62.1924 32.625 62.2803 32.6689 62.3584 32.7178C62.4365 32.7666 62.5391 32.7959 62.666 32.8057C62.8223 32.8252 62.9541 32.8691 63.0615 32.9375C63.1787 32.9961 63.2373 33.1182 63.2373 33.3037C63.2373 33.5381 63.1738 33.7236 63.0469 33.8604C62.9297 33.9971 62.7783 34.0996 62.5928 34.168C62.417 34.2363 62.2266 34.2803 62.0215 34.2998C61.8164 34.3096 61.626 34.3145 61.4502 34.3145C61.167 34.3145 60.8838 34.3047 60.6006 34.2852C60.3174 34.2656 60.0342 34.2559 59.751 34.2559C59.2822 34.2559 58.8574 34.2998 58.4766 34.3877C58.0957 34.4756 57.7637 34.6221 57.4805 34.8271C57.207 35.0322 56.9922 35.3057 56.8359 35.6475C56.6895 35.9795 56.6162 36.3994 56.6162 36.9072C56.6162 37.4053 56.6455 37.8936 56.7041 38.3721C56.7725 38.8506 56.8066 39.3389 56.8066 39.8369C56.8066 40.3057 56.8115 40.6816 56.8213 40.9648C56.8408 41.248 56.8994 41.4873 56.9971 41.6826C57.124 41.9658 57.2266 42.2881 57.3047 42.6494C57.3828 43.0107 57.4805 43.3525 57.5977 43.6748C57.7246 43.9971 57.8955 44.2705 58.1104 44.4951C58.335 44.71 58.6621 44.8174 59.0918 44.8174C59.2383 44.8174 59.4336 44.7979 59.6777 44.7588C59.9219 44.7197 60.166 44.6611 60.4102 44.583C60.6543 44.4951 60.8643 44.3877 61.04 44.2607C61.2158 44.124 61.3037 43.958 61.3037 43.7627C61.3037 43.5967 61.2549 43.4307 61.1572 43.2646C61.0596 43.0889 61.0107 42.9033 61.0107 42.708C61.0107 42.5713 61.04 42.4541 61.0986 42.3564C61.167 42.249 61.25 42.1562 61.3477 42.0781C61.4551 41.9902 61.5625 41.917 61.6699 41.8584C61.7871 41.79 61.8994 41.7314 62.0068 41.6826C62.1826 41.458 62.3926 41.2725 62.6367 41.126C62.8906 40.9697 63.1592 40.8916 63.4424 40.8916C63.6377 40.8916 63.8232 40.9258 63.999 40.9941C64.1846 41.0625 64.3555 41.1504 64.5117 41.2578C64.541 41.4336 64.5557 41.6143 64.5557 41.7998ZM81.3721 46.2383C81.3721 46.5801 81.2549 46.8486 81.0205 47.0439C80.7959 47.249 80.5225 47.4004 80.2002 47.498C79.8779 47.6055 79.541 47.6738 79.1895 47.7031C78.8477 47.7324 78.5547 47.7471 78.3105 47.7471C77.9883 47.7471 77.7197 47.7178 77.5049 47.6592C77.2998 47.6006 77.1191 47.5371 76.9629 47.4688C76.8066 47.4102 76.6699 47.3516 76.5527 47.293C76.4355 47.2344 76.3135 47.2051 76.1865 47.2051C76.0205 47.2051 75.8545 47.2344 75.6885 47.293C75.5322 47.3516 75.3711 47.3809 75.2051 47.3809C75.0879 47.3809 74.9902 47.3613 74.9121 47.3223C74.8438 47.2832 74.7852 47.2344 74.7363 47.1758C74.6875 47.127 74.6387 47.083 74.5898 47.0439C74.5508 47.0049 74.502 46.9854 74.4434 46.9854C74.375 46.9854 74.3213 47.0098 74.2822 47.0586C74.2432 47.1172 74.1992 47.1807 74.1504 47.249C74.1016 47.3174 74.0283 47.376 73.9307 47.4248C73.8428 47.4834 73.7109 47.5127 73.5352 47.5127C73.3301 47.5127 73.1299 47.4883 72.9346 47.4395C72.7393 47.4004 72.5391 47.3809 72.334 47.3809C72.1289 47.3809 71.9238 47.415 71.7188 47.4834C71.5234 47.5615 71.3379 47.6006 71.1621 47.6006C71.084 47.6006 71.0254 47.5713 70.9863 47.5127C70.9473 47.4639 70.9033 47.4395 70.8545 47.4395C70.6885 47.4395 70.5127 47.4785 70.3271 47.5566C70.1514 47.6348 69.9707 47.6738 69.7852 47.6738C69.6875 47.6738 69.5898 47.6592 69.4922 47.6299C69.4043 47.6104 69.3115 47.6006 69.2139 47.6006C69.0479 47.6006 68.8818 47.6396 68.7158 47.7178C68.5498 47.7959 68.3447 47.835 68.1006 47.835C68.0127 47.835 67.8174 47.8203 67.5146 47.791C67.2217 47.7715 66.9189 47.7373 66.6064 47.6885C66.2939 47.6396 66.0107 47.5762 65.7568 47.498C65.5127 47.4297 65.3906 47.3516 65.3906 47.2637C65.3906 47.0098 65.4346 46.7559 65.5225 46.502C65.6201 46.248 65.6689 46.0039 65.6689 45.7695V45.7402C65.542 45.7402 65.4688 45.6719 65.4492 45.5352C65.4688 45.4961 65.498 45.4668 65.5371 45.4473C65.5859 45.418 65.6348 45.3984 65.6836 45.3887C65.7324 45.3691 65.7764 45.3447 65.8154 45.3154C65.8545 45.2861 65.874 45.2422 65.874 45.1836V45.125C66.2646 45.1641 66.6455 45.1885 67.0166 45.1982C67.3975 45.208 67.793 45.2129 68.2031 45.2129C68.584 45.2129 69.0039 45.2031 69.4629 45.1836C69.9316 45.1543 70.3613 45.0811 70.752 44.9639C71.1523 44.8467 71.4844 44.6709 71.748 44.4365C72.0215 44.1924 72.1582 43.8555 72.1582 43.4258V43.3232V43.0889C72.1094 42.0146 72.0557 40.96 71.9971 39.9248C71.9482 38.8799 71.9238 37.8203 71.9238 36.7461C71.9238 36.4629 71.8994 36.1895 71.8506 35.9258C71.8115 35.6523 71.792 35.3789 71.792 35.1055C71.792 34.7637 71.8506 34.4219 71.9678 34.0801C72.0947 33.7383 72.29 33.4502 72.5537 33.2158C72.5439 33.1572 72.5195 33.1182 72.4805 33.0986C72.4414 33.0693 72.3926 33.0498 72.334 33.04C72.2754 33.0303 72.2168 33.0205 72.1582 33.0107C72.1094 33.001 72.0654 32.9863 72.0264 32.9668C71.9678 32.9375 71.9287 32.8691 71.9092 32.7617C71.8896 32.6543 71.8701 32.5371 71.8506 32.4102C71.8408 32.2832 71.8262 32.1611 71.8066 32.0439C71.7969 31.917 71.7676 31.8193 71.7188 31.751C71.748 31.4678 71.7969 31.1895 71.8652 30.916C71.9336 30.6426 71.9678 30.3643 71.9678 30.0811C71.9678 29.876 71.9385 29.7148 71.8799 29.5977C71.8311 29.4805 71.7725 29.3828 71.7041 29.3047C71.6357 29.2266 71.5723 29.1582 71.5137 29.0996C71.4648 29.0312 71.4404 28.9482 71.4404 28.8506C71.4404 28.7725 71.4648 28.6992 71.5137 28.6309L71.3965 28.6162C71.2988 28.6162 71.2256 28.6406 71.1768 28.6895C71.1279 28.7383 71.0791 28.792 71.0303 28.8506C70.9912 28.9092 70.9473 28.9629 70.8984 29.0117C70.8496 29.0605 70.7812 29.085 70.6934 29.085C70.625 29.085 70.5469 29.0703 70.459 29.041C70.293 29.0898 70.1367 29.1143 69.9902 29.1143C69.6484 29.1143 69.3066 29.0703 68.9648 28.9824C68.6328 28.8848 68.2959 28.8359 67.9541 28.8359C67.7686 28.8359 67.5879 28.8457 67.4121 28.8652C67.2363 28.875 67.0605 28.8799 66.8848 28.8799C66.6309 28.8799 66.377 28.8506 66.123 28.792C65.8691 28.7334 65.6445 28.6064 65.4492 28.4111V28.2354C65.4492 27.7178 65.6201 27.3271 65.9619 27.0635C66.3135 26.7998 66.7383 26.668 67.2363 26.668C67.5781 26.668 67.915 26.7119 68.2471 26.7998C68.5791 26.8877 68.916 26.9316 69.2578 26.9316C69.4434 26.9316 69.6387 26.9121 69.8438 26.873C70.0488 26.834 70.2588 26.79 70.4736 26.7412C70.6885 26.6924 70.9033 26.6484 71.1182 26.6094C71.3428 26.5703 71.5625 26.5508 71.7773 26.5508C72.1094 26.5508 72.4219 26.624 72.7148 26.7705C73.0078 26.9072 73.3008 27.0391 73.5938 27.166L73.5791 27.2832C73.5791 27.3711 73.5986 27.4541 73.6377 27.5322C73.6865 27.6006 73.7402 27.6738 73.7988 27.752C73.8574 27.8203 73.9062 27.8936 73.9453 27.9717C73.9941 28.04 74.0186 28.1182 74.0186 28.2061C74.0186 28.2939 74.0039 28.3818 73.9746 28.4697C73.9551 28.5479 73.9453 28.6309 73.9453 28.7188C73.9453 28.9336 73.9844 29.1387 74.0625 29.334C74.1504 29.5293 74.1943 29.7393 74.1943 29.9639C74.1943 30.1982 74.165 30.4277 74.1064 30.6523C74.0576 30.877 74.0332 31.1064 74.0332 31.3408C74.0332 31.624 74.0674 31.9072 74.1357 32.1904C74.2041 32.4736 74.2383 32.7568 74.2383 33.04C74.2383 33.2744 74.1992 33.5039 74.1211 33.7285C74.0527 33.9531 74.0186 34.1777 74.0186 34.4023C74.0186 34.5684 74.0381 34.7344 74.0771 34.9004C74.126 35.0566 74.1797 35.2129 74.2383 35.3691C74.2969 35.5254 74.3457 35.6865 74.3848 35.8525C74.4336 36.0088 74.458 36.1748 74.458 36.3506V36.6436C74.458 36.7998 74.4434 36.9512 74.4141 37.0977C74.3945 37.2344 74.3311 37.3662 74.2236 37.4932C74.2725 37.6787 74.3213 37.8789 74.3701 38.0938C74.4287 38.3086 74.458 38.5137 74.458 38.709C74.458 38.8066 74.4482 38.9141 74.4287 39.0312C74.4189 39.1387 74.3945 39.251 74.3555 39.3682C74.3262 39.4756 74.2822 39.5781 74.2236 39.6758C74.165 39.7637 74.0967 39.8369 74.0186 39.8955C74.1455 40.2666 74.2285 40.6426 74.2676 41.0234C74.3066 41.4043 74.3359 41.7852 74.3555 42.166C74.3652 42.2832 74.3848 42.4346 74.4141 42.6201C74.4434 42.8057 74.4727 42.9912 74.502 43.1768C74.5312 43.3525 74.5557 43.5186 74.5752 43.6748C74.6045 43.8213 74.6191 43.9238 74.6191 43.9824C74.6191 44.1484 74.5898 44.3096 74.5312 44.4658C74.4727 44.6221 74.4434 44.7832 74.4434 44.9492C74.4434 45.0762 74.4727 45.2129 74.5312 45.3594C74.5898 45.4961 74.6973 45.5645 74.8535 45.5645C74.9707 45.5645 75.0684 45.54 75.1465 45.4912C75.2344 45.4326 75.3271 45.374 75.4248 45.3154C75.5225 45.2471 75.6348 45.1885 75.7617 45.1396C75.8984 45.0811 76.0791 45.0518 76.3037 45.0518C76.5576 45.0518 76.7969 45.0859 77.0215 45.1543C77.2461 45.2227 77.4854 45.2568 77.7393 45.2568C77.9248 45.2568 78.1104 45.2422 78.2959 45.2129C78.4912 45.1738 78.6768 45.1348 78.8525 45.0957C79.0381 45.0469 79.2236 45.0029 79.4092 44.9639C79.5947 44.9248 79.7852 44.9053 79.9805 44.9053C80.3711 44.9053 80.6982 45.0176 80.9619 45.2422C81.2354 45.4668 81.3721 45.7988 81.3721 46.2383ZM72.9639 28.001C72.9248 27.9619 72.876 27.9229 72.8174 27.8838C72.7686 27.8447 72.71 27.8252 72.6416 27.8252C72.5928 27.8252 72.5488 27.8496 72.5098 27.8984C72.4805 27.9375 72.4658 27.9814 72.4658 28.0303L72.5391 28.2061C72.5781 28.2256 72.6074 28.2354 72.627 28.2354C72.7051 28.2354 72.7686 28.2109 72.8174 28.1621C72.876 28.1035 72.9248 28.0498 72.9639 28.001ZM73.8428 32.0732C73.8428 31.9951 73.8184 31.917 73.7695 31.8389C73.7305 31.751 73.6621 31.707 73.5645 31.707C73.5352 31.707 73.501 31.7119 73.4619 31.7217C73.4326 31.7314 73.4082 31.7412 73.3887 31.751V32.3809C73.4668 32.4199 73.5254 32.4395 73.5645 32.4395C73.6621 32.4395 73.7305 32.4004 73.7695 32.3223C73.8184 32.2344 73.8428 32.1514 73.8428 32.0732ZM96.5039 43.9385C96.5039 44.2021 96.46 44.4268 96.3721 44.6123C96.2939 44.7979 96.1865 44.9639 96.0498 45.1104C95.9229 45.2568 95.7715 45.3936 95.5957 45.5205C95.4297 45.6475 95.2588 45.7842 95.083 45.9307C94.9463 46.0479 94.8242 46.1357 94.7168 46.1943C94.6094 46.2529 94.502 46.3018 94.3945 46.3408C94.2969 46.3799 94.1895 46.4189 94.0723 46.458C93.9648 46.4971 93.8379 46.5508 93.6914 46.6191C93.4961 46.7168 93.3301 46.8096 93.1934 46.8975C93.0664 46.9756 92.9346 47.0488 92.7979 47.1172C92.6709 47.1855 92.5293 47.2393 92.373 47.2783C92.2168 47.3271 92.0215 47.3662 91.7871 47.3955C91.3965 47.4443 91.001 47.5029 90.6006 47.5713C90.21 47.6396 89.8193 47.6738 89.4287 47.6738C89.3506 47.6738 89.2676 47.6543 89.1797 47.6152C89.1016 47.5859 89.0088 47.5518 88.9014 47.5127C88.7939 47.4834 88.6719 47.4492 88.5352 47.4102C88.4082 47.3809 88.252 47.3662 88.0664 47.3662C87.8711 47.3662 87.7148 47.3369 87.5977 47.2783C87.4805 47.2197 87.373 47.1514 87.2754 47.0732C87.1875 46.9951 87.0947 46.9121 86.9971 46.8242C86.8994 46.7266 86.7725 46.6436 86.6162 46.5752C86.0303 46.3115 85.5322 45.9941 85.1221 45.623C84.7119 45.252 84.3604 44.8369 84.0674 44.3779C83.7744 43.9189 83.5303 43.4209 83.335 42.8838C83.1396 42.3467 82.9736 41.7852 82.8369 41.1992C82.7295 40.7891 82.6758 40.3789 82.6758 39.9688C82.6758 39.4316 82.8027 38.9336 83.0566 38.4746C82.959 38.2012 82.9102 37.9375 82.9102 37.6836C82.9102 37.498 82.9639 37.2246 83.0713 36.8633C83.1787 36.4922 83.3154 36.1211 83.4814 35.75C83.6572 35.3789 83.8428 35.0469 84.0381 34.7539C84.2432 34.4512 84.4336 34.2656 84.6094 34.1973C84.7461 34.1484 84.8389 34.1094 84.8877 34.0801C84.9463 34.041 84.9756 33.9434 84.9756 33.7871C84.9756 33.6699 85.0195 33.5723 85.1074 33.4941C85.2051 33.416 85.3174 33.3525 85.4443 33.3037C85.5811 33.2549 85.7129 33.2109 85.8398 33.1719C85.9766 33.1328 86.0889 33.0938 86.1768 33.0547C86.5381 32.8789 86.8799 32.7324 87.2021 32.6152C87.5342 32.4883 87.8613 32.3857 88.1836 32.3076C88.5156 32.2197 88.8574 32.1562 89.209 32.1172C89.5605 32.0781 89.9365 32.0586 90.3369 32.0586C90.5518 32.0586 90.7617 32.0879 90.9668 32.1465C91.1719 32.2051 91.3672 32.2832 91.5527 32.3809C91.748 32.4688 91.9385 32.5713 92.124 32.6885C92.3096 32.7959 92.4902 32.9033 92.666 33.0107H92.6514C92.7979 33.0303 92.9346 33.0742 93.0615 33.1426C93.1982 33.2012 93.3398 33.2402 93.4863 33.2598C93.623 33.4258 93.7988 33.5869 94.0137 33.7432C94.2383 33.8896 94.4531 34.0459 94.6582 34.2119C94.873 34.3779 95.0537 34.5586 95.2002 34.7539C95.3564 34.9395 95.4346 35.1543 95.4346 35.3984C95.4346 35.4375 95.4297 35.4766 95.4199 35.5156C95.4199 35.5547 95.415 35.5986 95.4053 35.6475L95.4639 35.5742C95.5029 35.6035 95.5371 35.6523 95.5664 35.7207C95.6055 35.7891 95.6396 35.8672 95.6689 35.9551C95.6982 36.0332 95.7227 36.1162 95.7422 36.2041C95.7617 36.2822 95.7764 36.3457 95.7861 36.3945C95.8643 36.5215 95.9668 36.624 96.0938 36.7021C96.2305 36.7803 96.3379 36.8877 96.416 37.0244C96.3184 37.1221 96.2695 37.249 96.2695 37.4053C96.2695 37.5713 96.3037 37.7373 96.3721 37.9033C96.4404 38.0596 96.4746 38.2207 96.4746 38.3867C96.4746 38.582 96.4648 38.7725 96.4453 38.958C96.4258 39.1338 96.416 39.3193 96.416 39.5146C96.416 39.6611 96.3574 39.7734 96.2402 39.8516C96.1328 39.9297 96.0107 39.998 95.874 40.0566C95.7471 40.1152 95.6299 40.1738 95.5225 40.2324C95.415 40.291 95.3613 40.374 95.3613 40.4814C95.3613 40.5596 95.3125 40.5986 95.2148 40.5986C95.127 40.5889 95.0537 40.584 94.9951 40.584C94.5654 40.584 94.1357 40.5303 93.7061 40.4229C93.2861 40.3154 92.8662 40.2617 92.4463 40.2617C91.9873 40.2617 91.5332 40.2959 91.084 40.3643C90.6348 40.4229 90.1807 40.4521 89.7217 40.4521C89.3799 40.4521 89.0381 40.4424 88.6963 40.4229C88.3643 40.4033 88.0273 40.3936 87.6855 40.3936C87.5977 40.3936 87.4316 40.4131 87.1875 40.4521C86.9434 40.4814 86.6846 40.5254 86.4111 40.584C86.1475 40.6328 85.8936 40.6963 85.6494 40.7744C85.4053 40.8428 85.2344 40.9111 85.1367 40.9795C85.127 41.0283 85.1221 41.0967 85.1221 41.1846C85.1221 41.6436 85.2539 42.1172 85.5176 42.6055C85.791 43.0938 86.1475 43.5381 86.5869 43.9385C87.0264 44.3389 87.5195 44.6709 88.0664 44.9346C88.6133 45.1982 89.165 45.3301 89.7217 45.3301C90.0439 45.3301 90.3613 45.3447 90.6738 45.374C90.9961 45.3936 91.3086 45.4619 91.6113 45.5791C91.875 45.4521 92.1143 45.3057 92.3291 45.1396C92.5537 44.9736 92.7686 44.7979 92.9736 44.6123C93.1787 44.4268 93.3789 44.2363 93.5742 44.041C93.7695 43.8457 93.9697 43.6504 94.1748 43.4551C94.2139 43.416 94.3066 43.3818 94.4531 43.3525C94.6094 43.3135 94.7754 43.2842 94.9512 43.2646C95.127 43.2354 95.293 43.2158 95.4492 43.2061C95.6152 43.1865 95.7275 43.1768 95.7861 43.1768C96.0107 43.1768 96.2207 43.2109 96.416 43.2793C96.4746 43.5039 96.5039 43.7236 96.5039 43.9385ZM94.3066 37.9912C94.3066 37.8447 94.2822 37.7031 94.2334 37.5664C94.1846 37.4297 94.1455 37.2881 94.1162 37.1416C94.0674 36.8682 94.043 36.6045 94.043 36.3506C94.043 36.0869 94.0039 35.8232 93.9258 35.5596H93.9111C93.9111 35.6182 93.8916 35.6768 93.8525 35.7354C93.8135 35.7842 93.7598 35.8086 93.6914 35.8086C93.5742 35.8086 93.4619 35.7793 93.3545 35.7207C93.2471 35.6621 93.1543 35.5889 93.0762 35.501C92.7051 35.335 92.3682 35.1787 92.0654 35.0322C91.7725 34.8857 91.4746 34.7588 91.1719 34.6514C90.8789 34.5342 90.5615 34.4463 90.2197 34.3877C89.8877 34.3193 89.502 34.2852 89.0625 34.2852C89.0234 34.2852 88.9844 34.29 88.9453 34.2998C88.916 34.2998 88.8867 34.3145 88.8574 34.3438L88.9307 34.5049L88.8135 34.5342C88.5498 34.583 88.3301 34.6318 88.1543 34.6807C87.9883 34.7197 87.8369 34.7783 87.7002 34.8564C87.5635 34.9346 87.4268 35.0322 87.29 35.1494C87.1631 35.2568 86.9971 35.3984 86.792 35.5742C86.6943 35.6621 86.5869 35.7305 86.4697 35.7793C86.3623 35.8184 86.25 35.8574 86.1328 35.8965C86.0254 35.9258 85.918 35.96 85.8105 35.999C85.7129 36.0381 85.6299 36.1016 85.5615 36.1895C85.4932 36.4336 85.3906 36.6729 85.2539 36.9072C85.127 37.1318 85.0635 37.3711 85.0635 37.625C85.0635 37.7715 85.1221 37.9033 85.2393 38.0205C85.3662 38.1279 85.5225 38.2207 85.708 38.2988C85.9033 38.377 86.1133 38.4453 86.3379 38.5039C86.5723 38.5625 86.8018 38.6064 87.0264 38.6357C87.251 38.665 87.4561 38.6895 87.6416 38.709C87.8369 38.7188 87.9883 38.7236 88.0957 38.7236C88.4668 38.7236 88.833 38.6895 89.1943 38.6211C89.5557 38.543 89.9219 38.5039 90.293 38.5039C90.6738 38.5039 91.0547 38.5234 91.4355 38.5625C91.8164 38.5918 92.1973 38.6064 92.5781 38.6064C92.6758 38.6064 92.8223 38.6016 93.0176 38.5918C93.2129 38.582 93.4033 38.5576 93.5889 38.5186C93.7842 38.4697 93.9502 38.4062 94.0869 38.3281C94.2334 38.2402 94.3066 38.1279 94.3066 37.9912Z" fill="black"/>
</svg>
